<svg width="44" height="50" fill="none" xmlns="http://www.w3.org/2000/svg">
    <path d="M32.443 0H3.733a2.933 2.933 0 00-2.93 2.93v9.96a.977.977 0 001.953 0V2.93c0-.539.438-.977.976-.977h28.711c.539 0 .977.438.977.977v36.328a.978.978 0 01-.977.976H3.733a.978.978 0 01-.977-.976V21.126a.977.977 0 00-1.954 0v18.132a2.933 2.933 0 002.93 2.93h28.711a2.933 2.933 0 002.93-2.93V2.93A2.933 2.933 0 0032.443 0z" fill="currentColor"/>
    <path d="M2.47 16.572a.982.982 0 00-1.381 0 .987.987 0 00-.287.69c0 .258.105.51.287.692a.984.984 0 00.69.286.984.984 0 00.69-.286.984.984 0 00.287-.691.986.986 0 00-.287-.69zM6.381 44.433a.982.982 0 00-.69-.286.984.984 0 00-.69.286.984.984 0 00-.287.69.98.98 0 001.667.69.982.982 0 00.286-.69.984.984 0 00-.286-.69zM38.309 3.912a.977.977 0 00-.977.977V43.17a.978.978 0 01-.977.977H9.598a.977.977 0 000 1.953h26.758a2.933 2.933 0 002.93-2.93V4.89a.977.977 0 00-.977-.977z" fill="currentColor"/>
    <path d="M42.221 7.813a.977.977 0 00-.977.976V47.07a.978.978 0 01-.976.977H9.604a.977.977 0 000 1.953h30.664a2.933 2.933 0 002.93-2.93V8.79a.977.977 0 00-.977-.977zM16.623 7.227H7.248a.977.977 0 00-.977.976v9.375c0 .54.438.977.977.977h9.375c.54 0 .976-.438.976-.977V8.203a.977.977 0 00-.976-.976zm-.977 9.375H8.224V9.18h7.422v7.422zM13.48 22.988a.977.977 0 00-1.38 0l-2.597 2.596-1.207-1.207a.977.977 0 00-1.38 1.381l1.897 1.898a.977.977 0 001.381 0l3.286-3.287a.977.977 0 000-1.38z" fill="currentColor"/>
    <path d="M29.48 24.316H18.089a.977.977 0 000 1.954H29.48a.977.977 0 100-1.954zM28.927 7.227h-6.835a.977.977 0 000 1.953h6.835a.977.977 0 000-1.953zM28.927 11.914h-6.835a.977.977 0 100 1.953h6.835a.977.977 0 000-1.953zM28.927 17.602h-6.835a.977.977 0 100 1.953h6.835a.977.977 0 000-1.953zM13.48 30.446a.977.977 0 00-1.38 0l-2.597 2.596-1.207-1.207a.977.977 0 00-1.38 1.381l1.897 1.898a.977.977 0 001.381 0l3.286-3.287a.977.977 0 000-1.38zM29.48 34.738H18.089a.977.977 0 000 1.953H29.48a.977.977 0 000-1.953z" fill="currentColor"/>
</svg>
