<svg width="160" height="117" viewBox="0 0 160 117" fill="none" xmlns="http://www.w3.org/2000/svg">
<g clip-path="url(#clip0)">
<path opacity="0.1" d="M158.185 53.2293C160.535 54.5757 160.548 56.7708 158.219 58.1318L153.587 60.844L67.6665 111.122L60.5007 115.315C58.1738 116.676 54.395 116.686 52.0438 115.34L1.83888 86.5545C-0.509091 85.2066 -0.528604 83.0179 1.79823 81.657L99.5153 24.4748C101.842 23.1106 105.629 23.0976 107.982 24.444L158.185 53.2293Z" fill="black"/>
<path d="M159.998 37.3821C159.998 37.5886 159.959 37.7951 159.896 37.9983C159.89 38.0195 159.885 38.0422 159.877 38.0634C159.81 38.2536 159.711 38.4422 159.589 38.6244C159.566 38.6553 159.548 38.6861 159.527 38.717C159.395 38.8975 159.234 39.0731 159.047 39.2439C158.927 39.3528 158.771 39.4536 158.624 39.5561C158.501 39.6455 158.394 39.7382 158.254 39.8195L153.611 42.517L153.59 50.3252L158.231 47.6276C158.255 47.613 158.28 47.5983 158.304 47.5837C158.415 47.5154 158.494 47.4406 158.594 47.3691C158.743 47.2634 158.901 47.1626 159.024 47.0487C159.037 47.039 159.054 47.0309 159.063 47.0195C159.205 46.8894 159.329 46.7577 159.436 46.6195C159.462 46.5886 159.478 46.5561 159.499 46.5252C159.524 46.4927 159.543 46.4618 159.564 46.4292C159.602 46.3723 159.646 46.3187 159.678 46.2601C159.74 46.1496 159.795 46.0357 159.839 45.9203C159.846 45.9024 159.849 45.8845 159.854 45.8666C159.862 45.8471 159.865 45.826 159.872 45.8065C159.896 45.7317 159.92 45.6585 159.935 45.5837C159.959 45.4699 159.971 45.3544 159.974 45.2406V45.1951C159.974 45.1918 159.976 45.1918 159.976 45.1886C159.982 42.9203 159.987 40.6487 159.994 38.3805L159.995 37.4325C159.998 37.4162 159.998 37.3983 159.998 37.3821Z" fill="#A9D6EA"/>
<path d="M1.78863 67.7724C0.609769 67.0894 0.0195256 66.1984 0.0227776 65.3041L1.33645e-05 73.1138C-0.00323867 74.0065 0.587005 74.8992 1.76912 75.5805L51.8862 104.514L51.909 96.7057L1.78863 67.7724Z" fill="#95C4DE"/>
<path d="M60.3641 96.7073C60.0048 96.9171 59.6015 97.083 59.1853 97.226C59.0357 97.2797 58.8844 97.322 58.7316 97.3659C58.5365 97.4212 58.3414 97.4716 58.1397 97.5139C57.8975 97.5626 57.6535 97.6098 57.4064 97.6407C57.3479 97.6488 57.2926 97.6586 57.2357 97.6651C56.9007 97.7008 56.5609 97.7187 56.2227 97.7204C56.1722 97.7204 56.1251 97.7204 56.0779 97.7204C55.7414 97.7204 55.4064 97.6992 55.0747 97.6651C55.0292 97.6602 54.9804 97.6537 54.9348 97.6488C54.6048 97.6098 54.2828 97.5561 53.9657 97.483C53.9137 97.4716 53.8601 97.4569 53.8031 97.4423C53.5137 97.3724 53.2324 97.2846 52.9609 97.1854C52.917 97.1691 52.8682 97.1578 52.8243 97.1399C52.504 97.0147 52.195 96.8716 51.9105 96.7073L51.8877 104.515C52.1592 104.672 52.4487 104.81 52.7527 104.93C52.7674 104.938 52.7853 104.941 52.8015 104.948C52.847 104.966 52.8958 104.979 52.943 104.995C53.1202 105.06 53.2975 105.125 53.4812 105.179C53.5788 105.207 53.6796 105.228 53.782 105.252C53.8357 105.267 53.8926 105.28 53.9479 105.293C54.0015 105.304 54.0519 105.32 54.1056 105.332C54.3007 105.371 54.4991 105.407 54.6975 105.433C54.7657 105.442 54.8357 105.449 54.904 105.455C54.956 105.462 55.008 105.467 55.0617 105.473C55.1332 105.48 55.2048 105.491 55.2763 105.498C55.4714 105.514 55.6666 105.525 55.8649 105.528C55.9267 105.53 55.9869 105.528 56.047 105.528C56.1023 105.528 56.1544 105.528 56.208 105.527C56.2991 105.527 56.3853 105.528 56.4747 105.527C56.6958 105.52 56.917 105.504 57.1365 105.483C57.1625 105.48 57.1885 105.473 57.2129 105.472C57.2714 105.465 57.33 105.454 57.3853 105.447C57.5576 105.426 57.73 105.407 57.8958 105.376C57.9706 105.363 58.0389 105.337 58.1121 105.322C58.317 105.278 58.5121 105.228 58.7105 105.174C58.8145 105.145 58.9251 105.128 59.0275 105.096C59.0747 105.08 59.1153 105.052 59.1625 105.034C59.5804 104.891 59.9804 104.724 60.3414 104.515L67.5186 100.345L67.5397 92.5366L60.3641 96.7073Z" fill="#A9D6EA"/>
<path d="M158.234 34.917C160.582 36.2698 160.587 38.4649 158.257 39.8194L153.615 42.517L67.5432 92.5365L60.3659 96.7072C58.0326 98.0617 54.2553 98.0617 51.909 96.7072L1.78867 67.7722C-0.556046 66.4161 -0.569054 64.2275 1.76265 62.8731L99.6521 5.98525C101.984 4.63078 105.771 4.62753 108.119 5.982L158.234 34.917Z" fill="#DEF6FF"/>
<path d="M153.615 42.517L67.543 92.5365L8.94141 58.704L95.0113 8.68286L153.615 42.517Z" fill="url(#paint0_linear)"/>
<path d="M138.763 27.922C139.389 28.2846 139.405 29.0244 138.485 29.5041C137.846 29.8374 137.039 30.0976 136.41 29.7366L118.185 19.3902C117.558 19.0276 118.369 18.174 118.992 17.8114C119.607 17.4553 120.62 17.4504 121.247 17.8114L138.763 27.922Z" fill="#75B2CC"/>
<path d="M138.211 28.3918C138.837 28.7544 138.841 29.3447 138.226 29.7024C137.602 30.0634 136.582 30.0634 135.956 29.7024L118.444 19.5902C117.815 19.2292 117.821 18.6422 118.444 18.2796C119.059 17.9236 120.072 17.9187 120.699 18.2796L138.211 28.3918Z" fill="#A9D6EA"/>
<path d="M153.615 42.5171L153.592 50.3252L67.522 100.345L67.5431 92.5366L153.615 42.5171Z" fill="url(#paint1_linear)"/>
<path d="M116.455 45.7463L116.449 47.8959C116.239 47.9642 116.041 48.0504 115.86 48.1561C115.847 48.1626 115.836 48.1707 115.823 48.1805L115.829 46.0276C115.842 46.0211 115.855 46.0146 115.868 46.0049C116.046 45.9008 116.246 45.8146 116.455 45.7463Z" fill="#B8387B"/>
<g opacity="0.1">
<g opacity="0.1">
<path opacity="0.1" d="M89.1984 69.6259C91.6114 71.0194 91.6114 73.2763 89.226 74.6616L84.7154 77.2828L78.5301 80.8779L67.5431 87.2649L63.9203 77.4633L49.8732 69.3543C47.4602 67.9625 47.4488 65.7088 49.8455 64.3169L60.5415 58.1007C62.9268 56.7153 66.8244 56.7072 69.2374 58.1007L89.1984 69.6259ZM79.5919 75.6844L81.2228 74.7348L59.8715 62.4064L58.2407 63.356L79.5919 75.6844ZM83.9252 73.1625L85.5561 72.2145L64.2033 59.8877L62.5724 60.8373L83.9252 73.1625ZM75.2585 78.1998L76.8894 77.2519L55.5366 64.9251L53.9073 65.873L75.2585 78.1998Z" fill="black"/>
</g>
</g>
<path d="M63.8814 50.0552L63.8781 52.8698L62.2456 53.8178L62.2521 51.0031L63.8814 50.0552Z" fill="#C5C5C5"/>
<path d="M59.5497 52.5739L59.5432 55.3885L57.9124 56.3365L57.9189 53.5234L59.5497 52.5739Z" fill="#C5C5C5"/>
<path d="M55.2164 55.0927L55.2067 57.9057L53.5774 58.8536L53.5839 56.0406L55.2164 55.0927Z" fill="#C5C5C5"/>
<path d="M47.7253 59.7983L47.7351 56.9836C47.7318 57.9007 48.3384 58.8194 49.5514 59.5202L49.5416 62.3316C48.3302 61.6324 47.7237 60.7154 47.7253 59.7983Z" fill="#95C4DE"/>
<path d="M49.5514 59.5219L49.5416 62.3332C48.3302 61.6324 47.7237 60.7154 47.7253 59.7983L47.7351 56.9836C47.7318 57.9007 48.3384 58.8194 49.5514 59.5219Z" fill="#95C4DE"/>
<path d="M85.2343 62.382L85.2262 65.1966L63.8782 52.8698L63.8814 50.0552L85.2343 62.382Z" fill="#898989"/>
<path d="M85.2343 62.382L83.6034 63.3316L62.2522 51.0031L63.8815 50.0552L85.2343 62.382Z" fill="#3FBAD4"/>
<path d="M85.2342 62.382L85.2261 65.1966L83.5952 66.1429L83.6033 63.3316L85.2342 62.382Z" fill="#38A7BE"/>
<path d="M83.6033 63.3316L83.5952 66.143L62.2456 53.8178L62.2521 51.0032L83.6033 63.3316Z" fill="#277484"/>
<path d="M80.8993 64.9023L80.8928 67.7153L59.5432 55.3885L59.5497 52.5739L80.8993 64.9023Z" fill="#898989"/>
<path d="M79.2701 65.8503L79.2603 68.6633L57.9124 56.3364L57.9189 53.5234L79.2701 65.8503Z" fill="#277484"/>
<path d="M80.8993 64.9023L80.8928 67.7154L79.2603 68.6633L79.27 65.8503L80.8993 64.9023Z" fill="#38A7BE"/>
<path d="M80.8992 64.9023L79.2699 65.8503L57.9187 53.5234L59.5496 52.5739L80.8992 64.9023Z" fill="#3FBAD4"/>
<path d="M76.5678 67.4195L76.558 70.2325L55.2068 57.9057L55.2165 55.0927L76.5678 67.4195Z" fill="#898989"/>
<path d="M63.5985 67.6308L63.5904 70.4438L49.5432 62.3332L49.5513 59.5219L63.5985 67.6308Z" fill="#95C4DE"/>
<path d="M76.5675 67.4194L76.5577 70.2324L74.9285 71.1804L74.935 68.3674L76.5675 67.4194Z" fill="#38A7BE"/>
<path d="M74.9351 68.3673L74.9286 71.1803L53.5774 58.8535L53.5839 56.0421L74.9351 68.3673Z" fill="#277484"/>
<path d="M88.8765 59.7934C91.2895 61.1853 91.2911 63.4422 88.9057 64.8292L84.3952 67.4503L78.2114 71.0454L67.2244 77.4324L63.6001 67.6308L49.5529 59.5218C47.1399 58.1283 47.1285 55.8763 49.5269 54.4844L60.2196 48.2714C62.6049 46.8828 66.5025 46.8763 68.9171 48.2714L88.8765 59.7934ZM79.27 65.8503L80.8992 64.9023L59.5497 52.5755L57.9188 53.5251L79.27 65.8503ZM83.6033 63.3316L85.2342 62.3836L63.8814 50.0568L62.2505 51.0048L83.6033 63.3316ZM74.935 68.3674L76.5675 67.421L55.2147 55.0942L53.5822 56.0422L74.935 68.3674Z" fill="#F8F9FD"/>
<path d="M76.5675 67.4195L74.935 68.3675L53.5837 56.0422L55.2163 55.0927L76.5675 67.4195Z" fill="#3FBAD4"/>
<path d="M90.6913 62.3267C90.6913 62.5397 90.6507 62.7511 90.5856 62.9592C90.5775 62.9836 90.5726 63.0047 90.5645 63.0275C90.4962 63.2226 90.397 63.4145 90.2718 63.6031C90.2491 63.6372 90.2312 63.6681 90.2068 63.7006C90.0702 63.8893 89.906 64.0714 89.7125 64.2454C89.597 64.3494 89.4458 64.4454 89.3076 64.5445C89.1759 64.6389 89.0588 64.7413 88.906 64.8291L84.3954 67.4502L78.2117 71.0454L67.2247 77.4323L67.2166 80.2437L78.2035 73.8584L84.3889 70.2632L88.8962 67.6437C88.9239 67.6275 88.9483 67.6128 88.9726 67.5982C89.1043 67.5202 89.197 67.4291 89.3141 67.3462C89.4458 67.2502 89.5922 67.1592 89.7043 67.0584C89.7174 67.047 89.7385 67.0356 89.7499 67.0242C89.893 66.8909 90.0182 66.7543 90.1287 66.6145C90.1548 66.5819 90.171 66.5462 90.1954 66.5153C90.2198 66.4811 90.2426 66.4486 90.2637 66.4145C90.3011 66.3576 90.3466 66.3039 90.3775 66.2454C90.4426 66.1299 90.4962 66.0128 90.5417 65.8958C90.5483 65.8779 90.5499 65.8616 90.558 65.8421C90.5645 65.821 90.5694 65.7982 90.5775 65.7738C90.6003 65.699 90.6263 65.6242 90.6426 65.5494C90.6653 65.4323 90.6783 65.3137 90.6832 65.1966L90.6848 64.8128L90.6913 62.3267Z" fill="#A9D6EA"/>
<path d="M67.2245 77.4325L67.2147 80.2439L63.5903 70.4439L63.5985 67.6309L67.2245 77.4325Z" fill="#95C4DE"/>
<path opacity="0.1" d="M47.0797 47.7901C43.8049 45.8991 38.5106 45.8991 35.2585 47.7901C32.0065 49.6812 32.0244 52.7478 35.2976 54.6373C38.5707 56.5267 43.8602 56.5234 47.1122 54.634C50.3626 52.743 50.3529 49.6812 47.0797 47.7901Z" fill="black"/>
<path d="M46.7512 44.8877C47.8081 45.4975 47.8114 46.4828 46.7626 47.0926C46.2212 47.408 45.5187 47.5592 44.813 47.5511C45.187 48.3283 44.935 49.2552 44.0667 50.0975L37.7659 46.4617C39.2195 45.956 40.8114 45.8031 42.1577 46.0178C42.1431 45.6097 42.3984 45.1999 42.9399 44.8861C43.987 44.2763 45.6959 44.2796 46.7512 44.8877Z" fill="#F8F9FD"/>
<path d="M51.831 47.0601C51.8213 47.1414 51.818 47.2211 51.8018 47.304C51.7904 47.3788 51.766 47.4536 51.7449 47.5284C51.7237 47.608 51.7042 47.6894 51.6782 47.7674C51.6522 47.8373 51.6197 47.9056 51.5888 47.9755C51.5514 48.0633 51.514 48.1495 51.4684 48.2357C51.4359 48.2942 51.3969 48.3544 51.3611 48.4129C51.2993 48.5154 51.2327 48.6162 51.1563 48.7137C51.1172 48.7674 51.0717 48.8227 51.0278 48.8747C50.9172 49.0064 50.7969 49.1365 50.6652 49.265C50.6213 49.3072 50.5823 49.3511 50.5351 49.3934C50.4538 49.4698 50.3595 49.5414 50.2684 49.6146C50.1937 49.6731 50.1237 49.7349 50.0424 49.7918C49.9481 49.8617 49.8424 49.9267 49.74 49.9934C49.6359 50.0633 49.5351 50.1316 49.4229 50.1983C49.0603 50.4097 48.6619 50.5885 48.2538 50.7511C48.1481 50.795 48.0408 50.8341 47.9335 50.8731C47.6798 50.9658 47.4148 51.0373 47.1514 51.1121C46.8733 51.1902 46.5937 51.265 46.3058 51.3219C45.979 51.3902 45.6457 51.452 45.3091 51.4926C45.2213 51.504 45.1335 51.5202 45.0441 51.5316C44.5823 51.582 44.114 51.6064 43.6457 51.608C43.5709 51.608 43.4945 51.6113 43.4197 51.6097C42.9546 51.6064 42.4912 51.582 42.0327 51.5316C41.966 51.5251 41.8961 51.5186 41.8294 51.5089C41.3725 51.4568 40.9221 51.3788 40.4831 51.2796C40.4034 51.2617 40.327 51.2406 40.2489 51.2211C39.8522 51.1235 39.4668 51.0064 39.0945 50.8698C39.0229 50.8454 38.9481 50.8243 38.8782 50.7967C38.431 50.6243 38.0034 50.4259 37.6083 50.1967C35.9611 49.2471 35.1384 47.9967 35.1416 46.7495L35.1367 48.8991C35.1319 50.1463 35.9546 51.395 37.6034 52.3479C37.9806 52.5641 38.3839 52.7576 38.8067 52.9251C38.831 52.9349 38.8554 52.9398 38.8798 52.9479C38.9416 52.9723 39.0067 52.9902 39.0684 53.0129C39.3172 53.104 39.5628 53.1934 39.8213 53.2682C39.9611 53.3072 40.1058 53.3365 40.2489 53.3723C40.3254 53.3918 40.3985 53.4113 40.475 53.4276C40.5481 53.4438 40.618 53.465 40.6912 53.4796C40.9644 53.5365 41.2392 53.5837 41.5189 53.6227C41.618 53.6373 41.7205 53.6454 41.8197 53.6585C41.8912 53.6666 41.9595 53.6731 42.0327 53.6812C42.1319 53.691 42.2294 53.7056 42.3319 53.7137C42.605 53.7381 42.8798 53.7511 43.1546 53.7576C43.2424 53.7593 43.3319 53.756 43.4213 53.756C43.4945 53.756 43.5644 53.756 43.6376 53.756C43.7611 53.756 43.888 53.7576 44.0099 53.7544C44.3205 53.743 44.6294 53.7219 44.9367 53.691C44.9725 53.6877 45.0067 53.6812 45.0441 53.678C45.1302 53.6698 45.2132 53.652 45.2993 53.6422C45.5367 53.6113 45.7725 53.5853 46.005 53.543C46.1091 53.5251 46.2018 53.4893 46.3058 53.4682C46.5953 53.4097 46.8717 53.3365 47.1497 53.2585C47.2928 53.2178 47.4489 53.195 47.5871 53.1511C47.7042 53.1121 47.8115 53.0617 47.9254 53.0227C48.0376 52.982 48.1481 52.9398 48.2587 52.8959C48.6652 52.7332 49.0587 52.5544 49.4197 52.343C49.4554 52.3235 49.488 52.304 49.5221 52.2828C49.5953 52.2389 49.6571 52.1918 49.727 52.1463C49.8343 52.0796 49.9416 52.0097 50.0392 51.9381C50.1205 51.878 50.1936 51.8178 50.2701 51.756C50.3579 51.6828 50.4506 51.6129 50.5319 51.5381C50.5465 51.5251 50.566 51.5121 50.5806 51.4975C50.6132 51.4682 50.6327 51.4357 50.6652 51.4064C50.7953 51.2796 50.9156 51.1511 51.0245 51.0194C51.0489 50.9918 51.0798 50.9658 51.101 50.9398C51.1221 50.9121 51.1351 50.8845 51.1546 50.8568C51.231 50.7593 51.2945 50.6601 51.3562 50.5593C51.3806 50.5202 51.4132 50.4796 51.4359 50.4406C51.4489 50.4194 51.4554 50.3999 51.4652 50.3772C51.5123 50.291 51.5514 50.2015 51.5904 50.1121C51.6099 50.0633 51.6408 50.0146 51.6587 49.9641C51.6668 49.9479 51.6684 49.93 51.6733 49.9121C51.701 49.8324 51.7221 49.7495 51.7432 49.6682C51.7595 49.608 51.7806 49.5528 51.7936 49.4926C51.7969 49.478 51.7969 49.4617 51.7985 49.4438C51.8148 49.3641 51.8197 49.2845 51.8262 49.2032C51.8327 49.1398 51.8473 49.0763 51.8489 49.0129C51.8489 48.9885 51.8489 48.9641 51.8489 48.9398L51.8554 46.7885C51.8522 46.8861 51.8392 46.9723 51.831 47.0601Z" fill="#E1BB00"/>
<path d="M49.3878 43.356C52.6625 45.2471 52.6739 48.3105 49.4219 50.1999C46.1699 52.0894 40.8804 52.0926 37.6073 50.2032C34.3357 48.3138 34.3162 45.2471 37.5682 43.356C40.8203 41.4666 46.1146 41.4666 49.3878 43.356ZM37.765 46.4617L44.0642 50.0975C44.9325 49.2552 45.1845 48.3284 44.8105 47.5512C45.5162 47.5593 46.2186 47.4081 46.7601 47.0926C47.8089 46.4845 47.804 45.4991 46.7487 44.8877C45.6934 44.2796 43.9861 44.2764 42.9373 44.8861C42.3959 45.1999 42.1422 45.6081 42.1552 46.0178C40.8105 45.8016 39.2186 45.956 37.765 46.4617Z" fill="#FFDF02"/>
<path opacity="0.1" d="M79.1771 32.2421C75.9056 30.3527 70.6096 30.3527 67.3576 32.2421C64.104 34.1316 64.1218 37.1999 67.395 39.0893C70.6682 40.9804 75.9576 40.9755 79.2097 39.086C82.4633 37.1966 82.4503 34.1316 79.1771 32.2421Z" fill="black"/>
<path d="M77.4552 28.6926C78.5122 29.3023 78.5154 30.2877 77.4666 30.8975C76.9252 31.2129 76.2227 31.3609 75.5154 31.3528C75.891 32.1316 75.6374 33.0584 74.7691 33.9023L68.4683 30.2649C69.9203 29.7609 71.5138 29.608 72.8585 29.821C72.8471 29.4113 73.1008 29.0048 73.6422 28.6893C74.6926 28.0812 76.4 28.0828 77.4552 28.6926Z" fill="#F8F9FD"/>
<path d="M82.535 30.8633C82.5268 30.9446 82.522 31.0259 82.5057 31.1056C82.4927 31.182 82.4699 31.2568 82.4488 31.3316C82.4277 31.4113 82.4082 31.4893 82.3821 31.569C82.3577 31.6389 82.3236 31.7088 82.2943 31.7771C82.2553 31.8649 82.2195 31.9511 82.1708 32.0373C82.1399 32.0958 82.1025 32.156 82.0651 32.2145C82.0017 32.317 81.935 32.4178 81.8618 32.5153C81.8195 32.5706 81.7773 32.6227 81.7334 32.6763C81.6228 32.8096 81.5008 32.9397 81.3691 33.0666C81.3252 33.1088 81.2846 33.1527 81.2374 33.195C81.1545 33.2698 81.0602 33.3414 80.9708 33.4161C80.896 33.4763 80.826 33.5365 80.7447 33.5934C80.6504 33.6633 80.5464 33.7283 80.4439 33.795C80.3399 33.8633 80.239 33.9332 80.1252 33.9999C79.7626 34.2113 79.3659 34.3901 78.9561 34.5544C78.8521 34.5966 78.7431 34.6373 78.6358 34.6763C78.3821 34.7674 78.1187 34.8405 77.8521 34.9153C77.574 34.9934 77.296 35.0649 77.0082 35.1251C76.6797 35.1918 76.348 35.2552 76.0098 35.2958C75.9236 35.3072 75.8358 35.3235 75.7464 35.3332C75.2846 35.3836 74.8179 35.408 74.3496 35.4113C74.2732 35.4113 74.1968 35.4129 74.1203 35.4129C73.6586 35.4096 73.1919 35.3853 72.735 35.3348C72.6667 35.3283 72.6 35.3202 72.5317 35.3121C72.0748 35.2584 71.6228 35.182 71.1838 35.0812C71.1041 35.0649 71.0293 35.0438 70.9496 35.0243C70.5529 34.9267 70.1691 34.8096 69.7968 34.6747C69.7252 34.647 69.6504 34.6292 69.5805 34.6015C69.1334 34.4275 68.7057 34.2308 68.3106 34.0015C66.6634 33.0503 65.8407 31.8015 65.8439 30.5527L65.8374 32.704C65.8325 33.9511 66.6553 35.1999 68.3041 36.1511C68.6797 36.3706 69.083 36.5609 69.5073 36.7283C69.5301 36.7381 69.5561 36.7446 69.5805 36.7544C69.6407 36.7771 69.7073 36.7934 69.7691 36.8178C70.0179 36.9072 70.2634 36.9966 70.522 37.0731C70.6618 37.1121 70.8065 37.1414 70.9496 37.1787C71.0244 37.1966 71.0992 37.2161 71.1756 37.2324C71.2488 37.2487 71.3187 37.2714 71.3919 37.2861C71.6651 37.343 71.9415 37.3901 72.2179 37.4308C72.3187 37.4438 72.4195 37.4519 72.5203 37.4649C72.5903 37.4731 72.6602 37.4796 72.7317 37.4877C72.8309 37.4991 72.9301 37.5153 73.0309 37.5218C73.3041 37.5446 73.5789 37.5609 73.8537 37.5674C73.9431 37.569 74.0293 37.5657 74.1171 37.5657C74.1903 37.5657 74.2618 37.5657 74.3366 37.5641C74.4586 37.5641 74.5854 37.5674 74.7073 37.5625C75.0179 37.5511 75.3269 37.5316 75.6342 37.5007C75.6699 37.4974 75.7041 37.4877 75.7399 37.4861C75.8277 37.4763 75.909 37.4617 75.9951 37.4503C76.2325 37.421 76.4683 37.395 76.7008 37.3527C76.8049 37.3332 76.8992 37.2991 77.0016 37.2779C77.2911 37.2194 77.5675 37.1446 77.8456 37.0682C77.9886 37.0292 78.1431 37.0064 78.2846 36.9609C78.4016 36.9218 78.509 36.8731 78.6228 36.8324C78.735 36.7918 78.8456 36.7511 78.9545 36.7072C79.361 36.543 79.7561 36.3641 80.1171 36.1544C80.1512 36.1348 80.1854 36.1153 80.2179 36.0942C80.2911 36.0503 80.3529 36.0048 80.4212 35.9592C80.5285 35.8909 80.6358 35.8227 80.7334 35.7511C80.8163 35.6909 80.8895 35.6292 80.9642 35.569C81.0537 35.4974 81.1447 35.4275 81.226 35.3527C81.2407 35.3381 81.2618 35.3251 81.2764 35.3105C81.3073 35.2812 81.3301 35.2503 81.3594 35.2194C81.4895 35.0926 81.6098 34.9641 81.7187 34.8324C81.7415 34.8048 81.7724 34.7787 81.7935 34.7511C81.8147 34.7251 81.8293 34.6974 81.8488 34.6698C81.922 34.569 81.9886 34.4698 82.0504 34.3706C82.0764 34.33 82.109 34.2926 82.1317 34.2519C82.1431 34.2308 82.148 34.2113 82.1594 34.1918C82.2065 34.104 82.2456 34.0161 82.2846 33.9251C82.3041 33.8763 82.3366 33.8275 82.3545 33.7771C82.3594 33.7609 82.3626 33.7414 82.3675 33.7267C82.3968 33.6454 82.4179 33.5657 82.439 33.4828C82.4553 33.4227 82.4764 33.3657 82.4895 33.3072C82.4943 33.2926 82.4943 33.2747 82.4943 33.2584C82.5106 33.1788 82.5155 33.0974 82.5236 33.0161C82.5285 32.9527 82.5431 32.8893 82.5464 32.8275C82.5464 32.8031 82.5464 32.7787 82.5464 32.7544L82.5512 30.6031C82.5577 30.6893 82.5431 30.7771 82.535 30.8633Z" fill="#E53399"/>
<path d="M80.0942 27.1593C83.3673 29.0503 83.3804 32.1137 80.1267 34.0032C76.8763 35.8926 71.5869 35.8958 68.3137 34.0064C65.0405 32.117 65.0226 29.0503 68.2747 27.1593C71.5267 25.2698 76.8226 25.2698 80.0942 27.1593ZM68.4714 30.265L74.7722 33.9023C75.6405 33.0584 75.8942 32.1316 75.5186 31.3528C76.2259 31.3609 76.9283 31.2113 77.4698 30.8975C78.5186 30.2877 78.5121 29.3023 77.4584 28.6926C76.4031 28.0828 74.6958 28.0796 73.647 28.6893C73.1055 29.0048 72.8503 29.4113 72.8633 29.821C71.5169 29.6064 69.9234 29.7609 68.4714 30.265Z" fill="#FF4CAA"/>
<path d="M120.356 82.3431C120.434 80.5025 120.607 78.6 120.823 76.67L115.233 76.5009C115.568 77.7187 115.907 78.922 116.186 80.0488C116.384 82.8944 114.264 83.67 115.628 86.6277C115.875 87.2001 116.699 87.7041 116.958 87.8131C118.195 88.2472 118.592 89.0879 118.969 89.8846C119.22 90.4147 119.465 90.9204 119.914 91.3366C121.563 92.8163 125.389 92.6781 126.207 91.4017C127.387 89.6033 122.085 85.8261 120.472 82.5643C120.431 82.5057 120.397 82.4212 120.356 82.3431Z" fill="#171716"/>
<path d="M135.533 69.6602C135.901 69.4423 135.909 69.057 136.441 68.6066C136.797 69.2895 137.87 69.9822 138.229 70.6391C138.315 70.6927 138.393 70.748 138.457 70.7773C141.72 72.8293 148.593 73.3025 148.525 75.5773C148.489 77.1887 145.111 79.4212 142.808 79.0017C142.177 78.8797 141.668 78.5578 141.153 78.2163C140.372 77.709 139.55 77.1659 138.193 77.457C137.896 77.5025 136.873 77.5074 136.332 77.1269C133.524 75.2456 134.889 73.4098 133.296 71.0261C134.072 70.5578 134.821 70.0716 135.533 69.6602Z" fill="#171716"/>
<path d="M120.826 60.3627C120.821 60.3594 121.6 55.2082 118.864 50.0147C116.703 45.909 107.694 42.1741 107.603 42.1741C107.511 42.1692 99.8001 45.6651 100.389 46.9725C100.717 47.7107 112.488 59.4294 112.719 59.979C113.125 60.9367 113.231 61.4863 113.005 62.5627C112.146 66.7481 113.103 79.0099 114.672 82.5741C115.826 85.1887 120.101 84.7107 120.878 83.2798C121.008 83.0326 120.917 63.1936 120.826 60.3627C120.917 63.1936 120.825 60.3578 120.826 60.3627Z" fill="#FE61CA"/>
<path opacity="0.3" d="M121.551 60.5822C121.55 60.5058 121.55 60.4456 121.545 60.3871C121.62 62.7464 121.573 61.1659 121.551 60.5822Z" fill="#123F5D"/>
<path opacity="0.3" d="M121.551 60.5822C121.55 60.4635 121.545 60.3871 121.545 60.3871C121.551 60.4456 121.551 60.5074 121.551 60.5822Z" fill="#123F5D"/>
<path opacity="0.3" d="M106.683 41.8813C106.763 41.8846 116.701 45.909 118.862 50.0147C121.598 55.2082 120.346 59.0586 120.346 59.0586C120.346 59.0586 119.142 57.5399 120.346 59.0586C120.898 59.7513 120.885 63.3626 120.932 65.6521C118.106 63.4114 118.024 56.4521 114.013 58.8846C113.289 59.1057 113.81 73.935 115.078 79.7041C115.324 80.8326 116.052 83.0618 116.6 84.0407C115.955 83.9789 115.319 83.7659 114.672 82.5708C113.823 79.5805 111.818 69.5366 113.005 62.5594C113.189 61.4797 113.125 60.9334 112.719 59.9757C112.486 59.4277 100.717 47.709 100.389 46.9692C99.7984 45.6667 106.582 41.8797 106.683 41.8813Z" fill="#123F5D"/>
<path d="M102.873 57.6504C110.559 57.0813 117.329 55.8895 117.329 55.8895C119.912 64.5643 132.312 72.2 133.802 73.3187C134.686 73.2017 136.945 70.8261 137.641 69.7626C135.273 65.8895 124.278 50.7171 120.703 48.3155C118.462 46.8147 98.9838 46.296 98.9806 45.3366C98.9789 44.9513 94.3253 44.4293 93.9919 44.4261C90.1285 44.4017 89.2797 58.6391 102.873 57.6504Z" fill="#FF61CB"/>
<path opacity="0.2" d="M93.9918 44.4245C94.3251 44.4277 98.9788 44.9497 98.9804 45.335C98.9788 45.7253 102.273 45.8651 106.34 46.0033C106.128 46.4017 105.855 46.7887 105.512 47.1676C102.797 50.1919 96.2633 47.4619 93.9901 50.8196C92.5251 52.9822 95.4926 54.7594 96.9153 55.2814C103.546 57.3838 112.624 57.4147 117.771 53.0228C120.023 61.7741 127.606 67.8375 135.039 72.7269C134.51 73.0554 134.058 73.2814 133.805 73.3155C132.315 72.1968 119.915 64.5611 117.33 55.8863C117.33 55.8863 110.562 57.0798 102.876 57.6472C89.2796 58.6391 90.1283 44.4017 93.9918 44.4245Z" fill="#1A4B6C"/>
<path d="M106.306 48.4504L106.255 49.0521L115.013 55.2927L115.063 54.6895L106.306 48.4504Z" fill="#B4B9BC"/>
<path d="M115.064 54.6895L115.013 55.2928L131.364 47.7773L131.418 47.1741L115.064 54.6895Z" fill="#7D8183"/>
<path d="M106.306 48.4505L115.063 54.6895L131.418 47.174L122.663 40.9318L106.306 48.4505Z" fill="#E3E5E5"/>
<path d="M117.691 44.3187L117.039 43.7155L114.311 54.6569L114.961 55.2602L117.691 44.3187Z" fill="#BDBBBB"/>
<path d="M134.784 36.4667L134.134 35.8618L117.039 43.7155L117.691 44.3187L134.784 36.4667Z" fill="#D2D0D0"/>
<path d="M117.691 44.3187L114.961 55.2602L132.055 47.4033L134.784 36.4667L117.691 44.3187Z" fill="#D5DFE6"/>
<path d="M117.691 44.3187L132.056 47.4033L134.784 36.4667L117.691 44.3187Z" fill="#E9F0F4"/>
<path d="M121.127 33.5887C121.127 33.5887 123.82 32.6326 125.194 33.4163C126.568 34.1968 127.566 34.3545 128.268 35.2992C128.979 36.2407 128.454 36.8976 127.525 37.0163C126.594 37.1285 124.992 36.9025 123.437 36.2895C121.888 35.6765 121.707 35.922 121.233 35.9236C120.761 35.9171 119.95 34.6895 121.127 33.5887Z" fill="#EFB185"/>
<path d="M105.197 14.3188C106.517 13.922 108.823 14.3025 109.385 17.909C109.943 21.5139 111.397 31.6163 111.397 31.6163C111.397 31.6163 121.179 32.7285 122.289 33.0293C122.289 33.0293 120.537 34.2082 121.364 36.0765C121.364 36.0765 110.659 38.2001 108.27 35.961C105.876 33.7334 99.7822 15.9253 105.197 14.3188Z" fill="#5FB9E6"/>
<path d="M90.8863 21.304C90.8863 21.304 94.3204 15.743 107.363 14.2683C107.363 14.2683 109.464 13.4634 109.075 20.1788C109.018 21.1496 109.972 22.8422 110.629 23.7333C111.283 24.6341 112.992 28.0504 108.917 31.9642C108.917 31.9642 107.211 37.9138 108.927 41.8406C110.459 45.3512 101.81 48.4796 94.5627 47.5609C93.6651 47.4504 91.6977 46.8032 92.5724 43.7089C93.4407 40.6081 95.4586 35.2016 94.1627 29.4081C92.8684 23.6097 89.8261 24.1967 90.8863 21.304Z" fill="#77D2FF"/>
<path d="M90.8864 21.3041C89.8246 24.1984 92.8669 23.6098 94.1644 29.4065C95.4587 35.1984 93.4408 40.6065 92.5742 43.7073C91.6994 46.8033 93.6669 47.4488 94.5644 47.5594C95.7628 47.7138 96.9969 47.7496 98.2116 47.6976C95.8295 42.0423 99.3888 31.9984 99.7173 26.4147C100.059 20.4927 94.7579 18.0195 94.7579 18.0195C91.8636 19.7187 90.8864 21.3041 90.8864 21.3041Z" fill="#5FB9E6"/>
<path d="M105.345 3.7675C105.345 3.7675 104.302 10.4651 103.711 16.8553C103.624 17.774 104.564 19.4277 106.283 19.0342C106.283 19.0342 111.359 11.5854 107.694 3.9366C106.53 1.51384 102.189 -1.97397 97.0178 1.39514L105.345 3.7675Z" fill="#301806"/>
<path d="M106.467 12.6163C106.467 12.6163 104.065 15.2602 105.05 18.2211C105.317 19.0325 105.946 22.3528 100.998 20.8406C100.998 20.8406 95.8878 18.0472 97.5008 16.5268C98.5675 15.5154 99.626 14.039 98.2781 8.62439L106.467 12.6163Z" fill="#E8A476"/>
<path d="M97.5009 16.5268C97.3285 16.6927 97.2391 16.8618 97.2212 17.0423C101.963 18.1512 105.351 14.9008 105.351 14.9008L99.3366 9.2179C99.3366 9.2179 99.0196 9.41464 98.535 9.75773C99.4651 14.2537 98.4895 15.5919 97.5009 16.5268Z" fill="#DB9669"/>
<path d="M105.948 3.07159C105.948 3.07159 107.28 3.58216 107.197 7.56916C107.184 8.00818 107.869 8.61631 108.025 9.7155C108.171 10.8326 108.275 15.2748 105.683 15.6602C103.815 15.9383 99.2457 14.6163 97.849 10.096C96.4539 5.57241 100.454 -0.0682421 105.948 3.07159Z" fill="#F1B287"/>
<path d="M105.647 4.66829C105.647 4.66829 94.0862 8.50081 102.22 23.4862C102.22 23.4862 96.2391 23.8829 93.7399 18.6667C92.5432 16.1626 93.1968 11.1967 93.7204 6.46016C93.7204 6.46016 95.2651 -0.806506 101.35 0.473169C101.35 0.474795 105.348 2.14634 105.647 4.66829Z" fill="#231202"/>
<path d="M105.647 4.66823C105.647 4.66823 107.655 4.34953 108.519 8.05847C108.519 8.05847 108.516 -2.34478 98.5757 0.497494C98.5757 0.497494 104.429 0.964161 105.647 4.66823Z" fill="#301806"/>
<path d="M100.097 10.9285C100.097 10.9285 99.4666 8.69923 98.1723 9.33175C97.769 9.53337 97.3154 9.98053 97.8877 11.1301C98.4633 12.2878 99.6861 13.361 100.688 13.2667L100.097 10.9285Z" fill="#F1B287"/>
<path d="M107.465 40.3951C107.465 40.3951 110.322 40.5724 111.283 41.8244C112.246 43.0797 113.564 44.3886 113.855 45.535C114.13 46.6732 113.896 47.0732 112.997 46.8195C112.098 46.5675 109.74 44.9561 108.551 43.787C107.356 42.6179 107.098 42.7708 106.659 42.5838C106.228 42.4033 105.955 40.948 107.465 40.3951Z" fill="#EFB185"/>
<path d="M106.657 42.5837C107.096 42.7707 107.355 42.6179 108.55 43.787C109.738 44.9561 112.096 46.5674 112.995 46.8195C113.125 46.8585 113.237 46.878 113.34 46.8878C112.649 46.117 111.468 44.8016 110.416 43.6845C109.106 42.2764 107.021 41.704 106.355 41.5447C106.249 42.0341 106.426 42.4878 106.657 42.5837Z" fill="#DB9669"/>
<path d="M92.3968 20.1138C93.7432 19.8374 96.0163 20.4032 96.2749 24.0439C96.5318 27.6845 97.1416 37.8699 97.1416 37.8699C97.1416 37.8699 106.8 39.7837 107.878 40.1772C107.878 40.1772 106.046 40.852 106.716 42.7805C106.716 42.7805 95.8651 44.3723 93.6635 41.9431C91.4668 39.5203 86.8619 21.2748 92.3968 20.1138Z" fill="#8DDFFF"/>
</g>
<defs>
<linearGradient id="paint0_linear" x1="144.001" y1="15.0055" x2="20.0794" y2="85.3472" gradientUnits="userSpaceOnUse">
<stop stop-color="#1A6BB2"/>
<stop offset="1" stop-color="#1B4B92"/>
</linearGradient>
<linearGradient id="paint1_linear" x1="67.5216" y1="71.4314" x2="153.614" y2="71.4314" gradientUnits="userSpaceOnUse">
<stop stop-color="#1B4B92"/>
<stop offset="1" stop-color="#1A5CB2"/>
</linearGradient>
<clipPath id="clip0">
<rect width="160" height="116.343" fill="white"/>
</clipPath>
</defs>
</svg>
