<svg width="160" height="133" viewBox="0 0 160 133" fill="none" xmlns="http://www.w3.org/2000/svg">
<g clip-path="url(#clip0)">
<path opacity="0.1" d="M1.8154 69.4736C-0.534935 70.8237 -0.547058 73.015 1.78055 74.3773L6.41454 77.0883L92.3358 127.367L99.499 131.563C101.827 132.92 105.604 132.933 107.955 131.585L158.159 102.801C160.509 101.454 160.526 99.2687 158.201 97.9034L60.4859 40.7195C58.1567 39.3587 54.3729 39.3405 52.021 40.6876L1.8154 69.4736Z" fill="black"/>
<path d="M0 53.6289C0 53.835 0.0393995 54.0426 0.10456 54.2457C0.113653 54.2654 0.116683 54.2881 0.12426 54.3093C0.192452 54.5002 0.286404 54.6881 0.410664 54.8715C0.43188 54.9003 0.450064 54.9336 0.47431 54.9624C0.604631 55.1458 0.760714 55.3216 0.95165 55.4898C1.07136 55.5989 1.22896 55.7004 1.37444 55.8035C1.49718 55.8929 1.60326 55.9838 1.74267 56.0656L6.38576 58.766L6.40849 66.5717L1.76843 63.8743C1.74267 63.8607 1.71994 63.8455 1.69418 63.8319C1.58204 63.7637 1.50627 63.6864 1.40323 63.6182C1.25472 63.5106 1.09864 63.4091 0.975896 63.2985C0.962258 63.2879 0.947104 63.2788 0.934981 63.2697C0.794052 63.1409 0.669792 63.0045 0.562201 62.8681C0.539471 62.8363 0.519771 62.806 0.498556 62.7741C0.475825 62.7393 0.457641 62.7105 0.43491 62.6772C0.400057 62.6196 0.351565 62.5681 0.321258 62.512C0.260643 62.3999 0.20609 62.2862 0.162144 62.1725C0.156083 62.1559 0.153052 62.1362 0.150021 62.118C0.139414 62.0983 0.139414 62.0756 0.130322 62.0559C0.107591 61.9816 0.0803144 61.9074 0.0666761 61.8331C0.0439456 61.7195 0.0303073 61.6043 0.0272766 61.4906V61.4421C0.0272766 61.4421 0.0272766 61.4391 0.0272766 61.4361C0.0181844 59.1706 0.0151537 56.8991 0.0045461 54.629L0 53.6804C0 53.6592 0 53.6425 0 53.6289Z" fill="#A9D6EA"/>
<path d="M158.214 84.018C159.389 83.3361 159.98 82.442 159.977 81.5525L160 89.3581C160.006 90.2537 159.414 91.1478 158.232 91.8267L108.116 120.761L108.093 112.952L158.214 84.018Z" fill="#95C4DE"/>
<path d="M99.6338 112.954C99.9945 113.165 100.396 113.328 100.811 113.474C100.964 113.522 101.114 113.568 101.267 113.613C101.463 113.668 101.66 113.716 101.861 113.762C102.104 113.807 102.348 113.856 102.593 113.884C102.654 113.893 102.707 113.901 102.768 113.907C103.101 113.943 103.44 113.962 103.781 113.965C103.83 113.965 103.878 113.965 103.924 113.965C104.26 113.965 104.598 113.945 104.928 113.91C104.974 113.904 105.022 113.901 105.069 113.896C105.4 113.857 105.721 113.799 106.038 113.731C106.091 113.718 106.145 113.702 106.201 113.689C106.488 113.618 106.771 113.531 107.044 113.431C107.086 113.415 107.138 113.402 107.179 113.389C107.502 113.263 107.809 113.121 108.096 112.955L108.118 120.764C107.846 120.922 107.556 121.058 107.253 121.178C107.236 121.187 107.22 121.188 107.205 121.194C107.158 121.211 107.108 121.226 107.062 121.243C106.888 121.307 106.711 121.372 106.526 121.423C106.427 121.452 106.326 121.475 106.223 121.498C106.167 121.511 106.114 121.526 106.057 121.537C106.006 121.549 105.954 121.569 105.9 121.579C105.704 121.616 105.506 121.651 105.307 121.679C105.238 121.692 105.168 121.696 105.101 121.702C105.05 121.708 104.995 121.714 104.944 121.719C104.869 121.728 104.801 121.735 104.728 121.745C104.535 121.758 104.338 121.77 104.139 121.776C104.077 121.779 104.018 121.773 103.959 121.773C103.9 121.773 103.848 121.773 103.795 121.773C103.707 121.773 103.619 121.776 103.528 121.77C103.309 121.767 103.089 121.751 102.866 121.731C102.84 121.725 102.815 121.72 102.789 121.72C102.733 121.711 102.675 121.704 102.615 121.698C102.443 121.675 102.272 121.655 102.107 121.623C102.033 121.61 101.964 121.584 101.887 121.569C101.684 121.526 101.487 121.475 101.289 121.42C101.186 121.391 101.073 121.375 100.97 121.34C100.925 121.326 100.884 121.301 100.837 121.282C100.419 121.134 100.016 120.972 99.6565 120.763L92.4782 116.594L92.457 108.782L99.6338 112.954Z" fill="#A9D6EA"/>
<path d="M1.7681 51.1634C-0.580714 52.5211 -0.586776 54.7108 1.74234 56.0671L6.38543 58.7675L92.4567 108.782L99.635 112.954C101.969 114.31 105.747 114.31 108.092 112.954L158.213 84.018C160.554 82.6618 160.568 80.4736 158.239 79.1204L60.3461 22.232C58.0155 20.8772 54.2286 20.8712 51.8843 22.2259L1.7681 51.1634Z" fill="#DEF6FF"/>
<path d="M6.38574 58.766L92.4571 108.781L151.059 74.9502L64.988 24.9264L6.38574 58.766Z" fill="url(#paint0_linear)"/>
<path d="M21.2378 44.167C20.6119 44.5322 20.5953 45.2686 21.5181 45.7475C22.1561 46.0809 22.9623 46.3415 23.5881 45.9809L41.815 35.6324C42.4423 35.2703 41.6316 34.4171 41.0073 34.0534C40.3905 33.6973 39.3813 33.6912 38.7524 34.0534L21.2378 44.167Z" fill="#75B2CC"/>
<path d="M21.788 44.6352C21.1622 44.9973 21.1607 45.5913 21.7729 45.9505C22.3957 46.3066 23.417 46.3066 24.0414 45.9505L41.556 35.8354C42.1803 35.4702 42.1773 34.8883 41.556 34.5231C40.9392 34.167 39.9255 34.164 39.2966 34.5231L21.788 44.6352Z" fill="#A9D6EA"/>
<path d="M6.38574 58.766L6.40847 66.5716L92.4783 116.592L92.4571 108.781L6.38574 58.766Z" fill="url(#paint1_linear)"/>
<path d="M43.5442 61.9937L43.5518 64.1424C43.7624 64.2106 43.9594 64.297 44.1382 64.4016C44.1519 64.4076 44.164 64.4167 44.1761 64.4243L44.1685 62.2694C44.1564 62.2634 44.1428 62.2558 44.1306 62.2497C43.9518 62.1482 43.7548 62.0618 43.5442 61.9937Z" fill="#B8387B"/>
<g opacity="0.1">
<path opacity="0.1" d="M142.569 73.4665L109.328 92.7874L32.5745 48.472L66.6187 28.4601L142.569 73.4665Z" fill="black"/>
</g>
<path d="M59.6435 22.4637L59.5692 48.3659L46.1582 56.1564L46.2325 30.2542L59.6435 22.4637Z" fill="url(#paint2_linear)"/>
<path d="M46.2325 30.2542L46.1582 56.1564L32.6624 48.3659L32.7351 22.4576L46.2325 30.2542Z" fill="url(#paint3_linear)"/>
<path d="M59.6435 22.4638L46.2325 30.2543L32.7351 22.4577L46.1461 14.6642L59.6435 22.4638Z" fill="#FFE85F"/>
<path d="M79.9283 17.7178L79.804 60.8921L66.3945 68.6856L66.5142 25.5143L79.9283 17.7178Z" fill="url(#paint4_linear)"/>
<path d="M66.5141 25.5143L66.3944 68.6856L52.9031 60.8981L53.0258 17.7253L66.5141 25.5143Z" fill="url(#paint5_linear)"/>
<path d="M79.9282 17.7177L66.5142 25.5143L53.0259 17.7253L66.4354 9.93481L79.9282 17.7177Z" fill="#FFE85F"/>
<path d="M100.233 12.532L100.058 72.9724L86.655 80.7614L86.8248 20.3195L100.233 12.532Z" fill="url(#paint6_linear)"/>
<path d="M86.8247 20.3195L86.655 80.7614L73.1606 72.9724L73.3319 12.532L86.8247 20.3195Z" fill="url(#paint7_linear)"/>
<path d="M100.233 12.532L86.8246 20.3195L73.3318 12.532L86.7367 4.74304L100.233 12.532Z" fill="#FFE85F"/>
<path d="M122.863 7.79053L122.642 85.5016L109.24 93.2921L109.46 15.5825L122.863 7.79053Z" fill="url(#paint8_linear)"/>
<path d="M109.46 15.5825L109.24 93.2921L95.7456 85.5016L95.9668 7.79053L109.46 15.5825Z" fill="url(#paint9_linear)"/>
<path d="M122.863 7.7905L109.46 15.5825L95.9668 7.7905L109.37 0L122.863 7.7905Z" fill="#FFE85F"/>
<path d="M59.478 36.4249C59.478 36.4249 62.4466 36.7901 62.3269 40.1572C62.2117 43.5244 59.0931 58.0749 55.5198 60.9647C51.9481 63.853 52.0209 56.9747 52.0209 56.9747C52.0209 56.9747 54.2181 35.6823 59.478 36.4249Z" fill="#BAD1DE"/>
<path d="M39.3027 59.6388C39.3027 59.6388 35.2188 60.404 32.4365 59.2448C29.6483 58.0916 30.3211 57.9976 30.5348 57.5718C31.0015 56.655 34.6823 56.9096 35.3597 56.7293C36.0401 56.5489 34.7975 56.0095 34.5156 55.5442C34.2353 55.076 33.5943 54.5274 33.8155 54.3744C34.0337 54.2228 34.6065 54.0637 35.637 54.8881C36.675 55.7124 39.286 56.8323 39.286 56.8323L39.3027 59.6388Z" fill="#EFB185"/>
<path d="M38.7159 56.4398C38.7159 56.4398 38.9417 57.2187 38.9311 58.2582C38.919 59.5084 38.3462 60.3525 38.3462 60.3525C38.3462 60.3525 51.6617 63.0241 55.0455 61.3057C55.0455 61.3057 58.3142 56.2655 53.3135 54.9244L38.7159 56.4398Z" fill="#BAD1DE"/>
<path d="M53.8956 61.6678C54.2062 61.6905 54.5744 61.5799 54.9972 61.3253C55.0124 61.3162 55.0321 61.3147 55.0457 61.3056C55.0457 61.3056 55.0548 61.2905 55.0579 61.2859C55.2094 61.192 55.3579 61.1011 55.52 60.9662C59.0933 58.0749 62.2104 43.5258 62.3271 40.1587C62.3498 39.5101 62.2377 39.0116 62.077 38.566C60.9875 42.3166 55.911 59.522 54.3562 59.8251C52.9272 60.1039 42.5409 59.4887 38.7995 59.2569C38.6222 59.9327 38.3479 60.3525 38.3479 60.3525C38.3479 60.3525 49.3525 62.5558 53.8956 61.6678Z" fill="#A3C1CE"/>
<path d="M44.3578 102.457C44.3578 102.457 45.1155 105.116 43.2455 105.785C41.3756 106.453 39.839 107.252 39.1207 107.82C38.4039 108.388 30.3649 111.804 29.3739 110.185C28.3828 108.567 30.7801 106.741 31.3893 106.179C31.9924 105.613 37.478 100.879 37.478 100.879L44.3578 102.457Z" fill="#111114"/>
<path d="M50.8556 107.083C50.8556 107.083 51.6087 109.743 49.7403 110.414C47.8733 111.079 46.3383 111.875 45.6185 112.446C44.8971 113.014 36.8627 116.427 35.8716 114.815C34.8836 113.196 37.2809 111.367 37.884 110.804C38.4856 110.238 43.9743 105.504 43.9743 105.504L50.8556 107.083Z" fill="#111114"/>
<path d="M57.8113 64.0787C57.8113 64.0787 38.1025 76.4714 37.5327 79.6218C36.9705 82.7753 37.0841 101.337 37.0841 101.337C37.0841 101.337 42.1348 103.509 44.5685 102.154L46.6128 84.662C46.6128 84.662 62.118 73.2179 62.7999 72.7921C63.4848 72.3648 57.8113 64.0787 57.8113 64.0787Z" fill="#9CBC35"/>
<path d="M62.7997 72.792C62.1178 73.2179 46.6125 84.6619 46.6125 84.6619L44.5683 102.154C43.3924 102.81 41.6088 102.636 40.0813 102.29C40.7769 96.9818 42.3392 85.2862 42.9029 82.3207C43.6363 78.4504 59.5386 69.2976 59.5386 69.2976L62.7785 72.3253C62.8633 72.5753 62.8845 72.7436 62.7997 72.792Z" fill="#779F29"/>
<path d="M57.7885 64.55C57.7885 64.55 60.0631 71.3131 61.2481 72.7891C61.2481 72.7891 45.5004 81.1282 44.6927 85.1545C43.8881 89.1838 42.9031 106.43 42.9031 106.43C42.9031 106.43 46.4218 108.728 51.1649 107.044C51.1649 107.044 52.9287 93.7981 53.1106 88.4671C53.1106 88.4671 76.9291 82.1632 75.1683 69.1204C75.1683 69.1219 66.0533 72.7497 57.7885 64.55Z" fill="#9CBC35"/>
<path d="M53.1105 88.4701C52.9271 93.8011 51.1648 107.045 51.1648 107.045C50.348 107.336 49.5736 107.502 48.8447 107.588C48.9796 105.516 49.1463 102.796 49.3554 99.217C50.1434 85.8515 52.2028 86.1091 52.2028 86.1091C67.3125 79.2854 70.369 72.7754 70.369 72.7754L75.2212 69.7871C76.1001 82.3737 53.1105 88.4701 53.1105 88.4701Z" fill="#779F29"/>
<path d="M67.9582 37.5811C67.9582 37.5811 75.4759 41.412 75.6623 41.9908C75.8502 42.5727 77.7989 43.9654 75.0137 50.5693C75.0137 50.5693 71.2814 57.7446 73.1513 64.9108C74.2378 69.0689 75.2107 71.2404 75.2107 71.2404C75.2107 71.2404 71.8739 76.1896 62.4968 72.7422C60.6011 72.0466 57.4203 69.4599 56.4565 67.3884C56.4565 67.3884 57.3354 61.2587 56.1625 54.0941C54.9866 46.9279 54.3274 37.6326 58.3932 36.3991C58.3932 36.3991 59.4251 35.1489 67.9582 37.5811Z" fill="#BAD1DE"/>
<path d="M56.1627 54.094C57.3356 61.2572 56.4566 67.3884 56.4566 67.3884C57.4204 69.4599 60.6012 72.0466 62.4969 72.7422C63.5455 73.1271 64.5093 73.3953 65.414 73.5892C65.0321 72.5679 64.4244 70.801 63.7668 68.2946C61.8938 61.1223 65.6276 53.9501 65.6276 53.9501C68.4129 47.3461 66.4641 45.9505 66.2747 45.3716C66.0898 44.7958 58.5691 40.9619 58.5691 40.9619C57.4977 40.6573 56.543 40.4088 55.6959 40.2087C54.8579 43.8684 55.3974 49.4282 56.1627 54.094Z" fill="#CAE0EA"/>
<path d="M65.3154 35.2808C65.3154 35.2808 59.8525 38.1569 62.2862 42.2787L59.7177 43.691C59.7177 43.691 57.1976 36.4824 65.3154 35.2808Z" fill="#FEFFFF"/>
<path d="M68.8218 32.3773C68.8218 32.3773 66.5245 35.8702 68.3444 38.2282C69.3612 39.5435 66.9654 42.6697 62.8709 42.4181C62.8709 42.4181 61.0449 41.9696 61.2298 41.3043C61.6541 39.7981 61.0494 38.9495 60.3963 37.7963C59.7493 36.6446 68.8218 32.3773 68.8218 32.3773Z" fill="#EFB185"/>
<path d="M68.3446 38.2281C68.4643 38.3842 68.5416 38.5676 68.5613 38.7676C67.0232 37.2068 64.0803 37.0901 64.0803 37.0901L67.9703 32.7864C68.1203 32.7152 68.2506 32.6546 68.3643 32.6016L68.4825 32.9804C67.9203 34.079 66.9868 36.4703 68.3446 38.2281Z" fill="#DD9569"/>
<path d="M61.2298 41.3043C61.6162 38.916 61.0495 38.9494 60.3964 37.7962C60.216 37.4795 60.7737 36.9279 61.6723 36.2975C61.892 36.4596 62.1178 36.7051 62.336 37.0446C63.9241 39.4904 63.9135 41.3967 63.7211 42.415C63.4453 42.4287 63.1619 42.4605 62.871 42.415C62.38 42.3438 61.1131 42.0468 61.2298 41.3043Z" fill="#F2B78F"/>
<path d="M69.6751 30.4196C69.6751 30.4196 68.6749 35.0399 65.4972 37.1372C62.6801 38.995 59.3994 40.2134 58.7993 36.8523C58.3189 34.1777 57.0066 27.3752 59.366 26.0038C62.4074 24.2459 63.5197 22.0744 67.0414 23.3731C67.0414 23.3746 71.0631 25.2203 69.6751 30.4196Z" fill="#EFB185"/>
<path d="M69.675 30.4195C69.675 30.4195 69.3068 34.3867 65.5108 37.1977C64.6955 37.7993 63.6529 38.2797 62.8422 38.6192C64.3258 37.5296 64.4773 37.1871 65.6244 35.8536C66.7776 34.5155 63.9121 35.0293 65.8684 31.6121C66.5291 30.4483 63.2756 31.9485 62.5452 31.9288C58.2128 31.8212 58.5355 29.3375 58.4507 28.2904C58.5386 27.8313 58.6583 27.3948 58.8068 27.0069L59.2205 26.2159C59.2675 26.1447 59.3175 26.0704 59.3645 26.0052C59.8403 25.4173 60.304 24.9005 60.7707 24.4641C62.627 24.502 67.9035 24.6187 68.0096 24.6414C68.0839 24.6641 68.9885 25.8946 69.8311 27.0645C70.0311 27.9798 70.0311 29.0905 69.675 30.4195Z" fill="#E6A376"/>
<path d="M67.7717 34.8959C67.7717 34.8959 71.2828 31.6742 70.0629 27.0508C70.0629 27.0508 69.4067 23.3352 65.2804 22.8381C63.3074 22.6048 59.5114 22.7275 58.0097 26.7084C57.5384 27.9495 57.8566 30.6726 62.7361 29.4057C63.4347 29.2208 65.2925 28.9784 65.9441 29.5709C66.6033 30.1649 66.6715 31.2772 66.3563 32.2198C66.0775 33.0471 66.8124 33.135 66.9124 32.9623C67.0125 32.788 67.9505 30.4195 68.8324 31.3469C69.6325 32.1788 67.858 34.7353 67.7717 34.8959Z" fill="#341C09"/>
<path d="M67.7716 34.8959C67.858 34.7368 69.6325 32.1789 68.8339 31.3454C67.9519 30.418 67.0139 32.7865 66.9139 32.9608C66.8139 33.135 66.0789 33.0456 66.3578 32.2183C66.673 31.2757 66.6048 30.1634 65.9456 29.5694C65.3516 29.0299 63.7256 29.3072 62.7375 29.4042C63.5498 28.8844 65.1606 28.7026 65.738 27.3554C66.5047 25.5491 67.5882 24.7036 68.6111 24.3868C69.8022 25.5976 70.0628 27.0493 70.0628 27.0493C71.2812 31.6727 67.7716 34.8959 67.7716 34.8959Z" fill="#221101"/>
<path d="M67.7793 37.0962C67.7793 37.0962 66.9519 41.2225 62.2861 42.2787L63.6197 45.5322C63.6181 45.5322 71.983 41.3392 67.7793 37.0962Z" fill="#FEFFFF"/>
<path d="M75.6623 41.9893C75.8503 42.5712 77.799 43.9638 75.0138 50.5678C75.0138 50.5678 71.877 57.6855 73.509 64.8456C74.2076 67.9187 74.1455 68.1309 75.3153 70.7419C75.9882 72.2375 73.0529 73.1361 70.3798 73.9575C68.7765 70.1584 68.9508 70.0963 68.281 65.9412C67.3688 60.2449 68.0128 55.5609 72.6786 49.848C76.7807 44.8245 75.0532 42.8697 75.1456 41.5453C75.4472 41.7468 75.6336 41.9044 75.6623 41.9893Z" fill="#9DBCC9"/>
<path d="M58.0113 26.7068C58.0113 26.7068 57.2915 31.1529 62.9544 29.5436C62.9544 29.5436 65.7851 28.7904 66.9247 26.1613C67.1671 25.6051 67.8202 24.6747 68.781 24.5747C68.781 24.5747 67.2717 22.4365 63.3711 22.7077C61.539 22.8396 59.6297 24.6232 59.166 24.9111C58.6962 25.2066 59.4554 27.0644 58.0113 26.7068Z" fill="#341C09"/>
<path d="M55.7472 70.9146L41.2785 79.3249L30.0557 72.8437L44.5244 64.4364L55.7472 70.9146Z" fill="#E2E6ED"/>
<path d="M44 75.8183L43.6545 76.0183L40.251 74.0514L40.5965 73.8544L44 75.8183Z" fill="#A5AAB4"/>
<path d="M42.6332 76.6109L42.2862 76.817L37.231 73.8968L37.5795 73.6923L42.6332 76.6109Z" fill="#A5AAB4"/>
<path d="M43.3168 76.2138L42.9682 76.4169L38.5464 73.8604L38.898 73.6604L43.3168 76.2138Z" fill="#A5AAB4"/>
<path d="M39.0888 72.1876L36.1611 73.8893L33.5547 72.3846L36.4824 70.6843L39.0888 72.1876Z" fill="#A5AAB4"/>
<path d="M41.2694 77.4049L40.9209 77.6095L36.4976 75.053L36.8476 74.85L41.2694 77.4049Z" fill="#A5AAB4"/>
<path d="M41.9513 77.0079L41.6027 77.214L38.1992 75.244L38.5462 75.0439L41.9513 77.0079Z" fill="#A5AAB4"/>
<path d="M44.685 75.4213L44.3349 75.6244L39.2827 72.7073L39.6312 72.5012L44.685 75.4213Z" fill="#A5AAB4"/>
<path d="M48.7705 72.6436L48.425 72.8436L45.02 70.8812L45.3686 70.6812L48.7705 72.6436Z" fill="#A5AAB4"/>
<path d="M47.4052 73.4347L47.0567 73.6408L42.0029 70.7237L42.3545 70.5206L47.4052 73.4347Z" fill="#A5AAB4"/>
<path d="M48.0885 73.0376L47.7415 73.2407L43.3167 70.6888L43.6667 70.4888L48.0885 73.0376Z" fill="#A5AAB4"/>
<path d="M46.0412 74.2286L45.6896 74.4332L41.2693 71.8828L41.6209 71.6768L46.0412 74.2286Z" fill="#A5AAB4"/>
<path d="M46.7231 73.8317L46.373 74.0363L42.968 72.0739L43.3166 71.8678L46.7231 73.8317Z" fill="#A5AAB4"/>
<path d="M49.4555 72.2451L49.1039 72.4497L44.0547 69.5341L44.4063 69.328L49.4555 72.2451Z" fill="#A5AAB4"/>
<path d="M58.5083 71.5314C58.5083 71.5314 54.0062 75.2471 49.5964 74.3803C49.5964 74.3803 49.6055 73.2362 51.5634 72.8073C53.5182 72.38 54.2683 70.8813 54.2547 70.6525C54.238 70.4237 52.7014 70.2933 52.015 70.2585C51.3224 70.2267 50.5026 69.2826 52.1756 69.1795C53.8501 69.0765 56.7096 68.434 58.3356 68.7916C58.3356 68.7916 59.96 70.5237 58.5083 71.5314Z" fill="#EFB185"/>
<path d="M73.0362 40.6421C73.0362 40.6421 76.7322 41.4952 77.6293 44.7427C78.5218 47.9931 79.9084 62.8089 77.3626 66.6321C74.8183 70.46 58.2235 72.4709 58.2235 72.4709C59.4161 69.9508 57.7219 67.8672 57.7219 67.8672L72.0543 61.8739C72.0558 61.8769 69.4887 42.0499 73.0362 40.6421Z" fill="#BAD1DE"/>
<path d="M72.0557 61.8769L57.7234 67.8702C57.7234 67.8702 58.0083 68.2354 58.2659 68.8325C61.6967 67.6565 72.9937 63.7151 74.1409 62.2936C75.3926 60.7525 72.6998 43.9683 72.2709 41.371C69.9039 45.2442 72.0557 61.8769 72.0557 61.8769Z" fill="#CAE0EA"/>
</g>
<defs>
<linearGradient id="paint0_linear" x1="16.0004" y1="31.2506" x2="139.921" y2="101.592" gradientUnits="userSpaceOnUse">
<stop stop-color="#1A6BB2"/>
<stop offset="1" stop-color="#1B4B92"/>
</linearGradient>
<linearGradient id="paint1_linear" x1="92.4778" y1="87.679" x2="6.38574" y2="87.679" gradientUnits="userSpaceOnUse">
<stop stop-color="#1B4B92"/>
<stop offset="1" stop-color="#1A5CB2"/>
</linearGradient>
<linearGradient id="paint2_linear" x1="46.1585" y1="39.3101" x2="59.6433" y2="39.3101" gradientUnits="userSpaceOnUse">
<stop stop-color="#FFDF02"/>
<stop offset="0.1253" stop-color="#F9D402"/>
<stop offset="0.4425" stop-color="#ECBD01"/>
<stop offset="0.7411" stop-color="#E4AF00"/>
<stop offset="1" stop-color="#E1AA00"/>
</linearGradient>
<linearGradient id="paint3_linear" x1="40.6449" y1="20.7377" x2="37.8198" y2="64.5218" gradientUnits="userSpaceOnUse">
<stop stop-color="#FFDF02"/>
<stop offset="0.1253" stop-color="#F9D402"/>
<stop offset="0.4425" stop-color="#ECBD01"/>
<stop offset="0.7411" stop-color="#E4AF00"/>
<stop offset="1" stop-color="#E1AA00"/>
</linearGradient>
<linearGradient id="paint4_linear" x1="66.3944" y1="43.2015" x2="79.928" y2="43.2015" gradientUnits="userSpaceOnUse">
<stop stop-color="#FFDF02"/>
<stop offset="0.1253" stop-color="#F9D402"/>
<stop offset="0.4425" stop-color="#ECBD01"/>
<stop offset="0.7411" stop-color="#E4AF00"/>
<stop offset="1" stop-color="#E1AA00"/>
</linearGradient>
<linearGradient id="paint5_linear" x1="60.6739" y1="14.1189" x2="58.5554" y2="78.0239" gradientUnits="userSpaceOnUse">
<stop stop-color="#FFDF02"/>
<stop offset="0.1253" stop-color="#F9D402"/>
<stop offset="0.4425" stop-color="#ECBD01"/>
<stop offset="0.7411" stop-color="#E4AF00"/>
<stop offset="1" stop-color="#E1AA00"/>
</linearGradient>
<linearGradient id="paint6_linear" x1="86.6547" y1="46.6462" x2="100.232" y2="46.6462" gradientUnits="userSpaceOnUse">
<stop stop-color="#FFDF02"/>
<stop offset="0.1253" stop-color="#F9D402"/>
<stop offset="0.4425" stop-color="#ECBD01"/>
<stop offset="0.7411" stop-color="#E4AF00"/>
<stop offset="1" stop-color="#E1AA00"/>
</linearGradient>
<linearGradient id="paint7_linear" x1="80.4176" y1="16.823" x2="79.3583" y2="91.3211" gradientUnits="userSpaceOnUse">
<stop stop-color="#FFDF02"/>
<stop offset="0.1253" stop-color="#F9D402"/>
<stop offset="0.4425" stop-color="#ECBD01"/>
<stop offset="0.7411" stop-color="#E4AF00"/>
<stop offset="1" stop-color="#E1AA00"/>
</linearGradient>
<linearGradient id="paint8_linear" x1="115.344" y1="15.1632" x2="116.756" y2="85.7796" gradientUnits="userSpaceOnUse">
<stop stop-color="#FFDF02"/>
<stop offset="0.1253" stop-color="#F9D402"/>
<stop offset="0.4425" stop-color="#ECBD01"/>
<stop offset="0.7411" stop-color="#E4AF00"/>
<stop offset="1" stop-color="#E1AA00"/>
</linearGradient>
<linearGradient id="paint9_linear" x1="103.883" y1="13.7496" x2="101.059" y2="94.9582" gradientUnits="userSpaceOnUse">
<stop stop-color="#FFDF02"/>
<stop offset="0.1253" stop-color="#F9D402"/>
<stop offset="0.4425" stop-color="#ECBD01"/>
<stop offset="0.7411" stop-color="#E4AF00"/>
<stop offset="1" stop-color="#E1AA00"/>
</linearGradient>
<clipPath id="clip0">
<rect width="160" height="132.587" fill="white"/>
</clipPath>
</defs>
</svg>
