<svg width="50" height="50" fill="none" xmlns="http://www.w3.org/2000/svg">
    <path d="M33.79 31.152a.977.977 0 00-.977.977v6.738a4.888 4.888 0 01-4.883 4.883H17.386a.977.977 0 00-.977.976l-.001 1.941-2.33-2.33a.977.977 0 00-.896-.587H6.835a4.888 4.888 0 01-4.883-4.883V23.828a4.888 4.888 0 014.883-4.883h9.863a.977.977 0 100-1.953H6.836A6.844 6.844 0 000 23.828v15.04a6.844 6.844 0 006.836 6.835h5.845l4.011 4.011a.976.976 0 001.667-.69l.003-3.32h9.568a6.844 6.844 0 006.836-6.837V32.13a.977.977 0 00-.977-.977z" fill="currentColor"/>
    <path d="M35.806 0h-2.471C25.508 0 19.14 6.367 19.14 14.194c0 7.826 6.367 14.194 14.194 14.194h2.471c1.222 0 2.43-.155 3.603-.462l3.65 3.649a.977.977 0 001.668-.69v-5.65a14.33 14.33 0 003.73-4.6A14.04 14.04 0 0050 14.194C50 6.367 43.633 0 35.806 0zm7.356 23.978a.977.977 0 00-.389.78v3.77l-2.39-2.389a.977.977 0 00-.977-.242 12.245 12.245 0 01-3.6.538h-2.471c-6.75 0-12.241-5.491-12.241-12.241s5.491-12.24 12.24-12.24h2.472c6.75 0 12.24 5.49 12.24 12.24 0 3.88-1.78 7.446-4.884 9.784z" fill="currentColor"/>
    <path d="M38.968 10.686a4.144 4.144 0 00-3.833-3.834 4.103 4.103 0 00-3.112 1.102 4.15 4.15 0 00-1.314 3.023.977.977 0 001.953 0c0-.611.247-1.178.694-1.595a2.183 2.183 0 013.664 1.438 2.172 2.172 0 01-1.697 2.285 1.848 1.848 0 00-1.456 1.812v2.346a.977.977 0 001.953 0v-2.268a4.113 4.113 0 003.148-4.31zM35.534 20.436a.984.984 0 00-.69-.287.984.984 0 00-.69.287.984.984 0 00-.287.69c0 .258.105.51.286.691a.983.983 0 00.69.285.983.983 0 00.691-.285.986.986 0 00.286-.691.985.985 0 00-.286-.69zM26.855 30.273H6.25a.977.977 0 000 1.954h20.605a.977.977 0 000-1.954zM27.546 36.028a.984.984 0 00-.69-.286.984.984 0 00-.691.286.984.984 0 00-.286.69c0 .258.104.51.286.691a.984.984 0 00.69.286.984.984 0 00.69-.286.982.982 0 00.287-.69.984.984 0 00-.286-.69zM23.014 35.742H6.25a.977.977 0 000 1.953h16.764a.977.977 0 000-1.953zM20.508 24.805H6.25a.977.977 0 000 1.953h14.258a.977.977 0 100-1.953z" fill="currentColor"/>
</svg>
