<svg width="50" height="50" fill="none" xmlns="http://www.w3.org/2000/svg">
    <path d="M18 .286A.983.983 0 0017.31 0a.982.982 0 00-.69.286.984.984 0 00-.287.69c0 .258.104.51.286.691a.984.984 0 00.69.286.983.983 0 00.69-.286.984.984 0 00.287-.69.984.984 0 00-.286-.69z" fill="currentColor"/>
    <path d="M49.998 18.213a.974.974 0 00-.402-.742l-4.87-3.524V2.93A2.933 2.933 0 0041.797 0H21.144a.977.977 0 000 1.953h20.654c.538 0 .976.438.976.977v19.174l-11.92 9.733-2.99-2.164a4.873 4.873 0 00-5.725 0l-2.99 2.164-11.921-9.733V2.93c0-.539.438-.977.976-.977h5.322a.977.977 0 000-1.953H8.203a2.933 2.933 0 00-2.93 2.93v11.017L.404 17.471h.001a.974.974 0 00-.405.79v26.856A4.888 4.888 0 004.883 50h40.234A4.888 4.888 0 0050 45.117V18.262c0-.018 0-.034-.002-.049zm-5.271-1.855l2.695 1.95-2.695 2.201v-4.151zm-39.454 0v4.151l-2.695-2.2 2.695-1.951zm-3.32 3.962L17.51 33.022 1.953 44.278V20.32zm43.164 27.727H4.883a2.932 2.932 0 01-2.606-1.593l21.006-15.199a2.924 2.924 0 013.434 0L43.446 43.36H33.69a.977.977 0 100 1.953h12.454l1.578 1.142a2.932 2.932 0 01-2.606 1.593zm2.93-3.769L32.49 33.021 48.047 20.32v23.958z" fill="currentColor"/>
    <path d="M29.813 11.654a.977.977 0 00-1.381 0l-4.792 4.792-2.072-2.071a.977.977 0 00-1.381 1.38l2.762 2.763a.977.977 0 001.381 0l5.483-5.483a.977.977 0 000-1.38z" fill="currentColor"/>
    <path d="M25 5.273c-5.41 0-9.813 4.402-9.813 9.813 0 5.41 4.402 9.812 9.813 9.812 5.41 0 9.812-4.401 9.812-9.812 0-5.41-4.402-9.813-9.812-9.813zm0 17.672c-4.334 0-7.86-3.526-7.86-7.86 0-4.333 3.526-7.858 7.86-7.858 4.334 0 7.86 3.525 7.86 7.859 0 4.333-3.526 7.86-7.86 7.86zM29.955 43.645a.984.984 0 00-.69-.286.98.98 0 00-.69 1.667.983.983 0 00.69.286.984.984 0 00.69-.286.985.985 0 00.286-.69.984.984 0 00-.286-.69z" fill="currentColor"/>
</svg>
