<svg width="151" height="160" viewBox="0 0 151 160" fill="none" xmlns="http://www.w3.org/2000/svg">
<g clip-path="url(#clip0)">
<path opacity="0.1" d="M66.0754 121.003L108.105 145.271L82.765 160L40.73 135.731L66.0754 121.003Z" fill="black"/>
<path opacity="0.1" d="M141.56 83.682C146.247 86.3866 146.261 90.7643 141.623 93.4582C136.98 96.1614 129.446 96.1614 124.757 93.4515C120.083 90.7563 120.065 86.3852 124.703 83.6913C129.34 80.9961 136.894 80.9895 141.56 83.682Z" fill="black"/>
<path d="M147.374 74.9398L123.528 75.3146L126.396 90.0971H126.439C126.637 91.2693 127.512 92.4122 129.071 93.3119C132.624 95.3626 138.348 95.3626 141.867 93.3159C143.414 92.4175 144.279 91.2733 144.463 90.0971H144.472L147.374 74.9398Z" fill="url(#paint0_linear)"/>
<path d="M143.85 70.0531C148.535 72.7576 148.551 77.1366 143.912 79.8319C139.269 82.5258 131.733 82.5258 127.047 79.8212C122.372 77.122 122.351 72.7576 126.99 70.0637C131.631 67.3672 139.183 67.3618 143.85 70.0531Z" fill="#FFE85F"/>
<path d="M141.26 71.3702C144.689 73.3477 144.689 76.5387 141.294 78.5162C137.911 80.4845 132.397 80.4845 128.972 78.5083C125.558 76.5334 125.538 73.3477 128.927 71.3702C132.321 69.4072 137.846 69.4033 141.26 71.3702Z" fill="#4D9B12"/>
<path d="M126.764 72.6686C126.764 72.6686 117.259 60.6451 126.603 39.0222C126.603 39.0222 134.815 49.3791 130.111 75.918C130.111 75.918 128.282 75.2336 126.764 72.6686Z" fill="#73C139"/>
<path d="M126.718 39.1764C126.896 47.5013 127.366 61.9582 128.512 74.8428C129.404 75.6509 130.111 75.9193 130.111 75.9193C134.494 51.168 127.668 40.5054 126.718 39.1764Z" fill="#4D9B12"/>
<path d="M131.448 71.1987C131.448 71.1987 123.826 57.8953 136.288 37.8992C136.288 37.8992 142.873 49.3618 134.265 74.9119C134.266 74.9119 132.561 73.9617 131.448 71.1987Z" fill="#73C139"/>
<path d="M136.288 37.8992C135.229 46.1616 132.879 60.5082 132.103 73.4208C132.871 74.3564 133.528 74.7272 133.528 74.7272C142.876 52.4132 137.024 39.3531 136.288 37.8992Z" fill="#4D9B12"/>
<path d="M131.929 76.4483C131.929 76.4483 120.527 72.4214 117.682 54.0586C117.682 54.0586 127.511 57.518 135.53 77.2205C135.53 77.2205 134.021 77.5275 131.929 76.4483Z" fill="#73C139"/>
<path d="M117.819 54.1118C121.44 59.6033 127.816 69.0538 134.007 77.1713C134.943 77.3348 135.529 77.2205 135.529 77.2205C128.059 58.855 119.016 54.6049 117.819 54.1118Z" fill="#4D9B12"/>
<path d="M136.99 74.6753C136.99 74.6753 130.887 67.702 135.884 54.3655C135.884 54.3655 141.151 60.3686 139.115 76.5359C139.115 76.5359 137.984 76.1824 136.99 74.6753Z" fill="#73C139"/>
<path d="M135.956 54.4519C136.313 59.4795 137.03 68.1951 138.106 75.9352C138.672 76.3964 139.115 76.536 139.115 76.536C141.011 61.4677 136.568 55.2267 135.956 54.4519Z" fill="#4D9B12"/>
<path d="M139.701 70.2006C139.701 70.2006 133.866 59.6071 143.94 43.994C143.94 43.994 148.986 53.1269 141.875 73.159C141.875 73.1603 140.546 72.3921 139.701 70.2006Z" fill="#73C139"/>
<path d="M144.015 44.1349C143.068 50.6377 141.544 61.9449 140.776 72.1157C141.363 72.8613 141.875 73.159 141.875 73.159C148.503 54.4732 144.578 45.2964 144.015 44.1349Z" fill="#4D9B12"/>
<path d="M141.2 72.1768C141.2 72.1768 139.818 63.2512 150.874 54.8811C150.874 54.8811 152.09 62.5667 141.968 74.8135C141.968 74.8135 141.234 73.9284 141.2 72.1768Z" fill="#73C139"/>
<path d="M150.896 54.9888C148.561 59.3067 144.614 66.8568 141.468 73.7968C141.689 74.4746 141.969 74.8135 141.969 74.8135C151.396 63.3987 150.988 55.951 150.896 54.9888Z" fill="#4D9B12"/>
<path opacity="0.1" d="M0 118.272L35.394 138.841L117.116 91.6587L80.8698 70.3495L0 118.272Z" fill="black"/>
<path d="M32.7292 114.953L32.7399 118.871L51.823 129.958L51.8031 126.039L32.7292 114.953Z" fill="#95C4DE"/>
<path d="M51.8032 126.039L51.8232 129.958L97.0319 103.862L97.0146 99.9424L51.8032 126.039Z" fill="#A9D6EA"/>
<path d="M32.7292 114.953L51.8031 126.039L97.0145 99.9424L77.9393 88.8545L32.7292 114.953Z" fill="#DEF6FF"/>
<path opacity="0.5" d="M32.7292 114.953L97.0145 99.9424L77.9393 88.8545L32.7292 114.953Z" fill="#DEF6FF"/>
<path d="M50.3532 118.74L46.9589 116.772L46.8606 81.4999L50.2456 83.4668L50.3532 118.74Z" fill="#95C4DE"/>
<path d="M50.2456 83.4668L46.8606 81.4998L77.5712 63.7643L80.9588 65.7365L50.2456 83.4668Z" fill="#C0C5D1"/>
<path d="M80.9589 65.7366L81.0652 101.012L50.3533 118.74L50.2456 83.4668L80.9589 65.7366Z" fill="#A9D6EA"/>
<path d="M19.426 122.767L16.1474 121.851L2.12109 52.6724L5.39443 53.588L19.426 122.767Z" fill="#95C4DE"/>
<path d="M5.39443 53.5881L2.12109 52.6724L93.3625 0L96.6318 0.909038L5.39443 53.5881Z" fill="#A9D6EA"/>
<path d="M96.6319 0.909058L110.666 70.0903L19.4261 122.767L5.39453 53.5881L96.6319 0.909058Z" fill="#DEF6FF"/>
<path d="M94.1891 6.42444L106.654 68.7387L22.1717 117.615L9.22192 54.4945L94.1891 6.42444Z" fill="url(#paint1_linear)"/>
<path d="M83.5238 20.4546L84.0661 22.8468L70.7162 30.5537L70.178 28.1615L83.5238 20.4546Z" fill="#649DD5"/>
<path d="M58.5571 58.5825L89.4844 40.7273L96.2051 70.5089L65.2766 88.3654L58.5571 58.5825ZM91.2479 58.5758L88.2218 45.1755L61.9687 60.3341L64.9922 73.7344L91.2479 58.5758Z" fill="#649DD5"/>
<path d="M87.1321 30.3092L87.6411 32.5605L56.7152 50.4157L56.2075 48.1657L87.1321 30.3092Z" fill="#649DD5"/>
<path d="M47.1982 57.296L47.6181 59.1673L29.149 69.8298L28.729 67.9586L47.1982 57.296Z" fill="#649DD5"/>
<path d="M46.2439 53.0684L46.6679 54.9462L28.2 65.6102L27.7734 63.7309L46.2439 53.0684Z" fill="#649DD5"/>
<path d="M24.9866 61.4119L48.5724 47.7936L58.8974 93.5472L35.3116 107.165L24.9866 61.4119ZM55.1523 92.5557L52.1554 79.2617L33.6849 89.923L36.6831 103.22L55.1523 92.5557ZM49.7167 68.4649L49.294 66.587L30.8249 77.2496L31.2502 79.1261L49.7167 68.4649ZM46.6679 54.9463L46.2453 53.0684L27.7748 63.731L28.2001 65.6102L46.6679 54.9463ZM48.7624 64.2373L48.3398 62.3594L29.872 73.022L30.2946 74.9012L48.7624 64.2373ZM47.6182 59.1672L47.1982 57.2973L28.729 67.9599L29.149 69.8311L47.6182 59.1672Z" fill="#8FC1EA"/>
<path d="M88.2762 35.3794L88.7826 37.6281L57.858 55.4846L57.3503 53.2359L88.2762 35.3794Z" fill="#649DD5"/>
<path d="M57.2706 35.6119L57.8128 38.0055L24.0987 57.4687L23.5591 55.0765L57.2706 35.6119Z" fill="#649DD5"/>
<g opacity="0.8">
<g opacity="0.8">
<path opacity="0.8" d="M86.9713 15.1014L20.4387 53.5149L33.4111 111.014L99.9463 72.6021L86.9713 15.1014ZM88.7827 37.6294L77.4649 44.1654L57.8595 55.4845L57.3518 53.2359L88.279 35.3794L88.7827 37.6294ZM87.1321 30.3092L87.6411 32.5606L56.7152 50.4157L56.2088 48.1657L87.1321 30.3092ZM86.6895 28.3383L55.761 46.1935L55.2546 43.9382L86.1779 26.0817L86.6895 28.3383ZM22.3804 54.3203L84.4621 18.4771L85.6064 23.5459L23.5247 59.3891L22.3804 54.3203ZM35.3116 107.165L24.9866 61.4119L48.5724 47.7936L58.8974 93.5472L35.3116 107.165ZM58.5572 58.5824L89.4844 40.7273L96.2052 70.5089L65.2766 88.3654L58.5572 58.5824Z" fill="#649DD5"/>
</g>
</g>
<path d="M91.248 58.5759L88.2219 45.1742L61.9688 60.3341L64.9922 73.7345L91.248 58.5759Z" fill="#8FC1EA"/>
<path d="M86.1766 26.0817L86.6895 28.3383L55.761 46.1935L55.2546 43.9382L86.1766 26.0817Z" fill="#649DD5"/>
<path d="M52.1553 79.2617L55.1522 92.5557L36.683 103.22L33.6848 89.923L52.1553 79.2617Z" fill="#649DD5"/>
<path d="M22.3804 54.3204L84.4621 18.4772L85.6064 23.546L23.5246 59.3892L22.3804 54.3204ZM57.8129 38.0055L57.2694 35.612L23.5592 55.0766L24.0988 57.4688L57.8129 38.0055ZM84.066 22.8469L83.5238 20.4561L70.178 28.1616L70.7162 30.5552L84.066 22.8469Z" fill="#8FC1EA"/>
<path d="M48.3399 62.3595L48.7625 64.2374L30.2947 74.9013L29.8721 73.0221L48.3399 62.3595Z" fill="#649DD5"/>
<path d="M49.2927 66.587L49.7166 68.4649L31.2501 79.1262L30.8262 77.2496L49.2927 66.587Z" fill="#649DD5"/>
<path d="M31.4894 41.7188L35.1415 59.7095L24.9866 65.4561L20.3378 64.046L17.2239 63.0293L14.8357 51.3354L31.4894 41.7188Z" fill="#FF4CAA"/>
<path d="M17.2239 63.0294L23.134 60.4325L24.9866 65.4561L17.2239 63.0294Z" fill="#E53399"/>
<path d="M29.2926 46.7012L29.5106 47.7777L19.139 53.9017L18.8918 52.7043L29.2926 46.7012Z" fill="#DEF6FF"/>
<path d="M30.0794 49.9878L30.2987 51.0656L19.9231 57.1897L19.6799 55.9922L30.0794 49.9878Z" fill="#DEF6FF"/>
<path d="M31.0947 53.0884L31.3114 54.1649L20.9398 60.2876L20.6926 59.0928L31.0947 53.0884Z" fill="#DEF6FF"/>
<path opacity="0.1" d="M115.073 112.414C121.778 116.284 121.81 122.561 115.15 126.429C108.489 130.299 97.6539 130.303 90.9504 126.432C84.2456 122.561 84.2097 116.282 90.872 112.411C97.529 108.542 108.368 108.542 115.073 112.414Z" fill="black"/>
<path d="M104.494 49.9293C104.494 49.9293 104.223 46.8341 99.8307 47.0587C95.4317 47.2833 91.0553 48.0926 91.0553 48.0926L83.7976 41.009C83.7976 41.009 81.9038 41.413 81.5623 42.6942C81.5623 42.6942 86.5766 51.2769 90.1742 52.6538C90.1755 52.6538 106.001 56.7139 104.494 49.9293Z" fill="#DEF0F9"/>
<path d="M83.4268 41.1167C83.4268 41.1167 83.056 38.8933 82.4327 38.1039C81.8134 37.3198 81.1874 36.949 80.9309 36.856C80.6691 36.7629 81.226 37.7995 81.4174 38.1278C81.6034 38.4574 81.5157 39.385 79.7162 37.866C77.9194 36.343 78.1879 36.8825 78.1693 37.0806C78.1493 37.2786 79.376 41.0715 81.6499 42.4564C81.6513 42.4577 82.0566 41.6364 83.4268 41.1167Z" fill="#EFB185"/>
<path d="M90.1754 52.6539C86.5791 51.2784 81.5635 42.6943 81.5635 42.6943C81.6618 42.3368 81.8798 42.0538 82.1456 41.8225C83.347 43.4479 86.8848 48.1791 89.1733 50.6577C91.9603 53.6759 104.523 51.2505 104.569 51.1481C103.947 56.185 90.1754 52.6539 90.1754 52.6539Z" fill="#C1DBE5"/>
<path d="M102.664 109.901C102.664 109.901 100.931 110.318 101.448 111.296C101.962 112.268 104.121 113.628 104.441 114.248C104.764 114.86 106.615 117.001 107.128 116.745C107.643 116.484 109.053 116.681 108.662 114.087C108.273 111.495 104.995 109.586 102.664 109.901Z" fill="#111114"/>
<path d="M104.957 115.457C104.957 115.457 106.278 117.756 104.3 118.741C102.316 119.731 102.684 118.295 98.3528 120.345C94.0215 122.399 93.0368 120.146 93.0381 119.598C93.0368 119.052 95.8915 117.506 96.8364 117.055C97.7853 116.599 99.5715 115.752 99.5715 115.752L104.979 114.689L104.957 115.457Z" fill="#111114"/>
<path d="M105.032 75.0913C105.032 75.0913 106.393 90.1941 106.544 91.8939C106.691 93.595 109.77 106.833 109.148 112.787C109.148 112.787 106.142 116.379 102.939 113.335C102.939 113.335 100.531 96.6344 99.3536 92.9252C98.1814 89.2106 97.4412 77.6058 97.4412 77.6058L105.032 75.0913Z" fill="#EA49BD"/>
<path d="M99.7867 73.7451C99.7867 73.7451 100.939 83.4973 102.049 93.1738C102.049 93.1738 105.294 112.175 105.382 114.992C105.382 114.992 99.5808 117.697 98.4046 114.948C98.4046 114.948 95.2854 98.2758 94.4481 94.8297C93.6095 91.3809 90.6339 80.6453 90.909 74.7777C91.1801 68.9128 99.7867 73.7451 99.7867 73.7451Z" fill="#EA49BD"/>
<path d="M105.381 114.991C105.293 112.174 102.047 93.1724 102.047 93.1724C101.302 86.6576 100.403 79.0305 99.9862 75.4462L96.0098 77.0596C96.0098 77.0596 95.2137 85.8549 97.7322 96.4617C99.6752 104.674 101.414 112.789 102.101 116.041C103.787 115.73 105.381 114.991 105.381 114.991Z" fill="#FE61CA"/>
<path d="M109.148 112.787C109.77 106.833 106.691 93.595 106.543 91.8939C106.4 90.2752 105.701 77.3187 105.588 76.011L101.945 78.0497C101.945 78.0497 101.845 88.9409 103.436 94.9998C104.893 100.514 105.233 111.463 105.976 114.541C107.811 114.381 109.148 112.787 109.148 112.787Z" fill="#FE61CA"/>
<path d="M103.175 47.0946C103.175 47.0946 106.54 48.3292 105.345 53.9456C104.151 59.562 103.274 63.2074 103.604 65.2089C103.939 67.217 105.293 74.6249 105.87 75.9566C105.87 75.9566 106.374 78.2478 97.8546 80.3914C97.8546 80.3914 90.1517 82.1763 90.9066 76.5081C91.6668 70.8293 89.9218 64.9272 89.4726 62.83C89.0181 60.7302 87.2651 56.6289 92.2529 53.1642C97.2379 49.6994 99.7564 47.2674 103.175 47.0946Z" fill="#DEF0F9"/>
<path d="M99.1065 44.8473C99.1065 44.8473 99.0866 47.7126 100.257 49.3738C101.319 50.8796 94.8192 53.0977 94.4989 51.6265C94.463 51.4697 95.4691 48.8901 93.5314 46.1842C92.5227 44.7675 99.1065 44.8473 99.1065 44.8473Z" fill="#EFB185"/>
<path d="M100.235 49.4775C99.3643 48.2415 99.149 46.3437 99.1012 45.4467L94.5068 48.409C94.5068 48.4156 94.5095 48.417 94.5135 48.421C94.6942 48.4436 98.0712 48.9074 99.0507 51.1893C100.004 50.6683 100.62 50.0264 100.235 49.4775Z" fill="#DD9569"/>
<path d="M91.2415 38.1265C91.2415 38.1265 90.4906 40.8084 90.9518 42.9973C91.4409 45.3536 91.1392 45.8732 91.4116 46.9152C91.5246 47.3591 91.6349 48.0395 92.1306 48.4143C92.9413 49.0403 94.4856 49.1333 96.4539 48.1525C98.8314 46.963 101.062 43.2551 99.6528 40.3087C98.244 37.361 94.6929 35.204 91.2415 38.1265Z" fill="#EFB185"/>
<path d="M99.9145 43.6365C98.6068 40.9891 95.768 37.955 95.7707 37.7782C95.7707 37.6679 94.8909 37.248 93.8994 36.8041C93.0343 36.9556 92.1332 37.3676 91.2414 38.1251C91.2414 38.1251 91.0421 38.8414 90.9092 39.8355C91.579 40.4309 92.8668 41.0489 93.11 41.5898C93.6881 42.8617 93.6735 44.8924 93.3785 45.8214C93.0834 46.749 94.8244 47.868 94.5759 48.6894C94.5639 48.7252 94.5679 48.7624 94.5786 48.7957C95.1447 48.6893 95.7707 48.4873 96.4511 48.1498C97.9702 47.3896 99.4294 45.6007 99.9145 43.6365Z" fill="#E6A376"/>
<path d="M90.3896 37.1536C90.3896 37.1536 90.2779 39.3917 92.5678 40.213C93.942 40.7034 94.0616 42.8165 94.0417 43.2139C94.0244 43.6139 93.8396 45.424 94.0284 45.634C94.3805 46.0367 95.2444 44.5575 95.7375 44.5974C97.0027 44.697 96.6505 45.9011 95.6657 47.2354C94.6171 48.6495 97.8134 48.8223 99.1437 47.6009C99.8547 46.9537 100.098 46.5842 100.885 44.4565C102.028 41.3559 101.706 37.8221 98.0207 36.3296C94.3407 34.8412 92.6409 37.7636 90.3896 37.1536Z" fill="#221101"/>
<path d="M99.145 47.6009C99.856 46.9537 100.099 46.5842 100.886 44.4565C102.029 41.3559 101.707 37.8221 98.022 36.3296C94.3407 34.8412 92.6409 37.7636 90.3895 37.1549C90.3895 37.1549 90.3709 37.5364 90.5065 38.0374C91.6282 38.0906 94.7021 38.3444 95.6218 39.5525C96.7608 41.0383 97.7602 40.4044 97.9037 42.3939C98.0446 44.3116 98.8181 46.7517 95.7388 48.191C97.0252 48.9126 98.6293 48.078 99.145 47.6009Z" fill="#341C09"/>
<path d="M94.7725 50.7028L92.8069 52.7721C92.8069 52.7721 99.7815 53.9509 101.391 50.4131C101.614 49.9147 101.1 48.3811 99.8865 48.2229C99.8851 48.2229 99.9609 50.9407 94.7725 50.7028Z" fill="#C1DBE5"/>
<path d="M90.3882 76.322C91.147 70.6432 89.923 64.9272 89.4738 62.8287C89.026 60.7501 87.3142 56.7086 92.1159 53.2678C94.0243 54.1516 96.8671 56.1916 95.8491 60.3036C94.5892 65.3883 95.1819 76.0376 95.3454 80.6572C93.1751 80.6572 89.9244 79.8067 90.3882 76.322Z" fill="#C1DBE5"/>
<path d="M78.9082 43.7016C78.9082 43.7016 79.1222 42.0417 78.6065 41.4848C78.0895 40.9266 76.9612 38.6341 76.4788 38.3231C75.9964 38.0121 76.1838 38.9292 76.33 39.5352C76.4761 40.1425 76.3871 41.324 76.1771 41.1765C75.9698 41.0277 74.9996 41.7267 75.1777 42.5813C75.3571 43.4358 76.738 44.814 76.7645 44.9987C76.7911 45.1848 78.9082 43.7016 78.9082 43.7016Z" fill="#EFB185"/>
<path d="M94.5107 57.0527C94.5107 57.0527 95.0902 54.3097 91.2294 53.3461C87.3727 52.3839 83.3764 51.9321 83.3764 51.9321L78.9654 43.9049C78.9654 43.9049 77.2204 43.7574 76.5918 44.7754C76.5918 44.7754 78.6704 53.5109 81.4187 55.6467C81.4174 55.644 94.0323 63.315 94.5107 57.0527Z" fill="#DEF0F9"/>
<path d="M95.8356 140.06C95.8356 140.06 93.3903 142.112 93.9019 144.258C93.9019 144.258 94.7219 145.127 95.4874 143.593C96.2556 142.057 97.0623 140.01 95.8356 140.06Z" fill="#0A1014"/>
<path d="M93.9019 144.469C93.9019 144.469 97.6005 145.741 98.2224 144.534C98.8471 143.33 99.5315 142.365 99.9794 141.931C100.435 141.492 103.484 136.365 102.483 135.545C101.475 134.729 100.017 136.182 99.578 136.538C99.1395 136.901 94.4906 140.504 94.4906 140.504L93.9019 144.469Z" fill="#111114"/>
<path d="M63.2724 121.69C63.2724 121.69 76.2222 129.115 79.1593 131.642C81.5914 133.731 95.0661 140.178 95.0661 140.178C95.0661 140.178 94.4322 141.454 93.9724 144.347C93.9724 144.347 81.6618 144.169 73.915 137.056C73.915 137.056 47.9211 131.642 50.1392 118.231C50.1392 118.229 58.7086 119.775 63.2724 121.69Z" fill="#131C24"/>
<path d="M99.9794 141.931C100.383 141.541 102.838 137.436 102.651 135.968C102.212 135.904 101.514 135.982 101.117 136.938C100.507 138.418 98.6371 141.801 98.2942 142.234C98.0032 142.603 96.326 144.222 96.5984 145.042C97.3373 145.086 97.9925 144.982 98.2225 144.533C98.8471 143.33 99.5315 142.364 99.9794 141.931Z" fill="#1D1D21"/>
<path d="M88.3015 150.918C88.3015 150.918 92.4905 151.574 92.9304 150.478C93.3743 149.383 93.89 148.493 94.2435 148.076C94.601 147.663 96.831 142.978 95.8954 142.348C94.9625 141.718 93.8142 143.098 93.462 143.442C93.1098 143.789 89.285 147.236 89.285 147.236L88.3015 150.918Z" fill="#161619"/>
<path d="M94.2435 148.078C94.5612 147.709 96.358 143.954 96.0802 142.702C95.6921 142.683 95.0968 142.807 94.8296 143.667C94.4163 144.994 93.07 148.076 92.8056 148.48C92.5836 148.822 91.2639 150.362 91.5669 151.051C92.2062 151.028 92.767 150.883 92.9305 150.479C93.3757 149.384 93.8914 148.494 94.2435 148.078Z" fill="#1D1D21"/>
<path d="M57.6759 97.626C57.6759 97.626 55.2199 97.9276 55.3196 100.72C55.4166 103.509 57.9949 115.558 60.9572 117.952C63.9156 120.344 63.8531 114.648 63.8531 114.648C63.8531 114.648 62.0351 97.0133 57.6759 97.626Z" fill="#779F29"/>
<path d="M61.1007 120.509C61.1007 120.509 58.9478 126.891 57.8354 128.282C57.8354 128.282 70.7839 135.71 73.721 138.236C76.1544 140.325 89.9215 146.65 89.9215 146.65C89.9215 146.65 88.9952 148.047 88.5327 150.94C88.5327 150.94 76.2235 150.763 68.4754 143.651C68.4754 143.651 42.4814 138.236 44.7009 124.824C44.6995 124.824 53.3008 128.245 61.1007 120.509Z" fill="#1D2833"/>
<path d="M50.6561 98.5814C50.6561 98.5814 43.6284 102.531 43.4729 103.012C43.3187 103.489 42.5054 103.87 44.8125 109.338C44.8125 109.338 46.9908 114.167 45.4398 120.106C44.5387 123.547 44.6823 124.708 44.6823 124.708C44.6823 124.708 47.4121 130.559 55.1787 127.703C56.7456 127.124 61.126 122.949 61.9221 121.229C61.9221 121.229 59.4528 118.19 60.423 112.26C61.3958 106.327 61.9434 98.6266 58.577 97.602C58.577 97.602 57.7211 96.5693 50.6561 98.5814Z" fill="#9CBC35"/>
<path d="M52.8423 96.6783C52.8423 96.6783 57.3689 99.0599 55.3501 102.474L57.4818 103.646C57.4818 103.646 59.567 97.6738 52.8423 96.6783Z" fill="#FEFFFF"/>
<path d="M49.9373 94.2742C49.9373 94.2742 51.8404 97.1687 50.3346 99.1184C49.4907 100.211 51.4789 102.798 54.8652 102.591C54.8652 102.591 56.3829 102.22 56.2288 101.671C55.8766 100.422 56.3789 99.7204 56.9198 98.7635C57.4528 97.808 49.9373 94.2742 49.9373 94.2742Z" fill="#EFB185"/>
<path d="M50.3344 99.1183C50.2361 99.2486 50.175 99.4027 50.155 99.5675C51.4256 98.2757 53.8683 98.1787 53.8683 98.1787L50.6428 94.6143C50.5178 94.5545 50.4115 94.5027 50.3172 94.4562L50.2188 94.7738C50.6866 95.6868 51.4575 97.6657 50.3344 99.1183Z" fill="#DD9569"/>
<path d="M56.2272 101.67C55.9056 99.6898 56.3774 99.719 56.9183 98.7622C57.0632 98.5017 56.6033 98.0458 55.8604 97.5195C55.677 97.6577 55.4923 97.8598 55.3076 98.1415C53.9958 100.167 54.0051 101.747 54.1593 102.59C54.3906 102.603 54.6271 102.627 54.8637 102.59C55.2717 102.529 56.3256 102.281 56.2272 101.67Z" fill="#F2B78F"/>
<path d="M49.2342 92.6554C49.2342 92.6554 50.0608 96.4816 52.6936 98.2173C55.0233 99.7563 57.7425 100.768 58.2395 97.982C58.6369 95.7666 59.7267 90.1316 57.7704 88.9993C55.2506 87.5427 54.327 85.7446 51.4138 86.8184C51.4151 86.8184 48.0833 88.3494 49.2342 92.6554Z" fill="#EFB185"/>
<path d="M49.2342 92.6554C49.2342 92.6554 49.5386 95.9407 52.6817 98.2691C53.3555 98.7662 54.2207 99.1649 54.8878 99.4413C53.6611 98.5402 53.5376 98.2585 52.5847 97.1528C51.6331 96.047 54 96.4736 52.3813 93.6429C51.8324 92.6767 54.5303 93.922 55.1337 93.9047C58.726 93.813 58.4562 91.761 58.5253 90.8905C58.4522 90.5077 58.3539 90.1516 58.2316 89.8286L57.8914 89.1748C57.8515 89.1163 57.8103 89.0552 57.7704 89.0007C57.3784 88.5103 56.9916 88.0823 56.6062 87.7208C55.0686 87.7541 50.6961 87.8484 50.6098 87.871C50.55 87.8856 49.7991 88.9063 49.1027 89.8765C48.9405 90.634 48.9405 91.5523 49.2342 92.6554Z" fill="#E6A376"/>
<path d="M50.8078 96.362C50.8078 96.362 47.9026 93.6933 48.9113 89.8618C48.9113 89.8618 49.4535 86.7825 52.8744 86.3732C54.505 86.1805 57.6468 86.2802 58.8934 89.5774C59.2815 90.6074 59.0183 92.8627 54.9782 91.8115C54.3987 91.6613 52.8637 91.458 52.3202 91.9497C51.7766 92.4428 51.7168 93.3611 51.9786 94.1425C52.2072 94.8283 51.6052 94.9014 51.5188 94.7552C51.4364 94.6104 50.6589 92.6554 49.928 93.4182C49.2701 94.1107 50.7386 96.2291 50.8078 96.362Z" fill="#341C09"/>
<path d="M50.8079 96.362C50.7388 96.2304 49.2716 94.112 49.9294 93.4196C50.6604 92.6567 51.4379 94.6103 51.5203 94.7565C51.6053 94.9027 52.2087 94.8296 51.9801 94.1439C51.7183 93.3624 51.7781 92.4441 52.3216 91.951C52.8134 91.5031 54.161 91.7304 54.9796 91.8128C54.3112 91.3848 52.9729 91.2333 52.4971 90.1156C51.8618 88.6205 50.9607 87.9215 50.1155 87.6583C49.1267 88.6604 48.9128 89.8618 48.9128 89.8618C47.9027 93.692 50.8079 96.362 50.8079 96.362Z" fill="#221101"/>
<path d="M50.8023 98.1814C50.8023 98.1814 51.4854 101.6 55.3501 102.473L54.2444 105.168C54.2457 105.169 47.3176 101.697 50.8023 98.1814Z" fill="#FEFFFF"/>
<path d="M58.8948 89.5775C58.8948 89.5775 59.4902 93.2628 54.8001 91.9285C54.8001 91.9285 52.4544 91.3038 51.5108 89.1283C51.3115 88.6658 50.7679 87.8976 49.9758 87.8139C49.9758 87.8139 51.2238 86.0397 54.4519 86.2696C55.9723 86.3772 57.5498 87.8551 57.9405 88.0956C58.326 88.3349 57.6987 89.8752 58.8948 89.5775Z" fill="#341C09"/>
<path d="M74.3867 116.854C74.3867 116.854 77.7664 117.487 80.0735 116.527C82.3833 115.57 81.8252 115.49 81.6484 115.141C81.2617 114.381 78.2169 114.592 77.6534 114.442C77.0899 114.293 78.1226 113.849 78.3525 113.461C78.5811 113.073 79.1166 112.621 78.9293 112.493C78.7485 112.369 78.2794 112.237 77.4222 112.919C76.5636 113.603 74.4027 114.529 74.4027 114.529L74.3867 116.854Z" fill="#EFB185"/>
<path d="M74.8745 114.204C74.8745 114.204 74.6872 114.846 74.6925 115.706C74.7031 116.744 75.1776 117.44 75.1776 117.44C75.1776 117.44 64.1495 119.653 61.3493 118.231C61.3493 118.231 58.6394 114.056 62.7833 112.945L74.8745 114.204Z" fill="#779F29"/>
<path d="M53.8071 128.295L53.7593 128.856L61.9699 134.682L62.0177 134.118L53.8071 128.295Z" fill="#B4B9BC"/>
<path d="M62.0178 134.118L61.97 134.683L77.2601 127.616L77.3133 127.054L62.0178 134.118Z" fill="#7D8183"/>
<path d="M53.8071 128.295L62.0177 134.118L77.3132 127.054L69.104 121.23L53.8071 128.295Z" fill="#E3E5E5"/>
<path d="M64.4563 124.409L63.8463 123.843L61.3105 134.088L61.9219 134.653L64.4563 124.409Z" fill="#BDBBBB"/>
<path d="M80.4428 117.023L79.8314 116.459L63.8462 123.843L64.4562 124.409L80.4428 117.023Z" fill="#D2D0D0"/>
<path d="M64.4563 124.409L61.9219 134.653L77.9085 127.268L80.4429 117.023L64.4563 124.409Z" fill="#D5DFE6"/>
<path d="M64.4563 124.409L77.9085 127.268L80.4429 117.023L64.4563 124.409Z" fill="#E9F0F4"/>
<path d="M58.4814 126.703C58.4814 126.703 62.2092 129.781 65.86 129.061C65.86 129.061 65.8547 128.112 64.2346 127.757C62.6106 127.403 61.9913 126.162 62.0046 125.973C62.0152 125.781 63.2884 125.674 63.8585 125.648C64.4313 125.62 65.1131 124.841 63.7269 124.755C62.3408 124.667 59.9725 124.139 58.6236 124.433C58.6236 124.433 57.28 125.87 58.4814 126.703Z" fill="#EFB185"/>
<path d="M45.8226 102.273C45.8226 102.273 43.3865 101.824 42.6436 104.515C41.9033 107.208 40.7577 119.477 42.8655 122.646C44.972 125.817 58.7152 127.482 58.7152 127.482C57.7278 125.393 59.1312 123.668 59.1312 123.668L47.2645 118.705C47.2645 118.704 50.1644 102.992 45.8226 102.273Z" fill="#779F29"/>
<path d="M47.2644 118.704L59.1311 123.666C59.1311 123.666 58.7337 124.178 58.5104 124.967C55.8126 124.109 45.8557 122.628 46.0882 120.482C47.2804 109.427 47.3907 103.646 47.3907 103.646L47.8319 104.963C48.9363 109.635 47.2644 118.704 47.2644 118.704Z" fill="#8CB230"/>
</g>
<defs>
<linearGradient id="paint0_linear" x1="135.47" y1="77.0828" x2="135.702" y2="101.872" gradientUnits="userSpaceOnUse">
<stop stop-color="#FFDF02"/>
<stop offset="0.1253" stop-color="#F9D402"/>
<stop offset="0.4425" stop-color="#ECBD01"/>
<stop offset="0.7411" stop-color="#E4AF00"/>
<stop offset="1" stop-color="#E1AA00"/>
</linearGradient>
<linearGradient id="paint1_linear" x1="79.2717" y1="12.5769" x2="38.1191" y2="107.174" gradientUnits="userSpaceOnUse">
<stop stop-color="#1A6BB2"/>
<stop offset="1" stop-color="#1B4B92"/>
</linearGradient>
<clipPath id="clip0">
<rect width="150.926" height="160" fill="white"/>
</clipPath>
</defs>
</svg>
