<svg width="331" height="33" viewBox="0 0 331 33" fill="none" xmlns="http://www.w3.org/2000/svg">
<g clip-path="url(#clip0_502_10958)">
<path d="M0.25 29.9476V3.20435H40.6149V29.9476H0.25Z" fill="#003399" stroke="white" stroke-width="0.5"/>
<path d="M20.4062 5.98145L19.9385 7.42088L20.6583 7.65473L20.4062 5.98145Z" fill="#FFCC00"/>
<path d="M20.4062 5.98145L20.874 7.42088L20.1542 7.65473L20.4062 5.98145Z" fill="#FFCC00"/>
<path d="M21.8594 7.02734H20.3459V7.7841L21.8594 7.02734Z" fill="#FFCC00"/>
<path d="M21.8594 7.02734L20.6349 7.91696L20.1901 7.30474L21.8594 7.02734Z" fill="#FFCC00"/>
<path d="M21.3125 8.71973L20.8448 7.28029L20.1251 7.51414L21.3125 8.71973Z" fill="#FFCC00"/>
<path d="M21.3125 8.71973L20.088 7.83011L20.5329 7.21788L21.3125 8.71973Z" fill="#FFCC00"/>
<path d="M18.9912 7.02734H20.5047V7.7841L18.9912 7.02734Z" fill="#FFCC00"/>
<path d="M18.9912 7.02734L20.2157 7.91696L20.6605 7.30474L18.9912 7.02734Z" fill="#FFCC00"/>
<path d="M19.5381 8.71973L20.0058 7.28029L20.7255 7.51414L19.5381 8.71973Z" fill="#FFCC00"/>
<path d="M19.5381 8.71973L20.7625 7.83011L20.3177 7.21788L19.5381 8.71973Z" fill="#FFCC00"/>
<path d="M20.4062 24.1436L19.9385 25.583L20.6583 25.8168L20.4062 24.1436Z" fill="#FFCC00"/>
<path d="M20.4062 24.1436L20.874 25.583L20.1542 25.8168L20.4062 24.1436Z" fill="#FFCC00"/>
<path d="M21.8594 25.1895H20.3459V25.9462L21.8594 25.1895Z" fill="#FFCC00"/>
<path d="M21.8594 25.1895L20.6349 26.0791L20.1901 25.4668L21.8594 25.1895Z" fill="#FFCC00"/>
<path d="M21.3125 26.8818L20.8448 25.4424L20.1251 25.6762L21.3125 26.8818Z" fill="#FFCC00"/>
<path d="M21.3125 26.8818L20.088 25.9922L20.5329 25.38L21.3125 26.8818Z" fill="#FFCC00"/>
<path d="M18.9912 25.1895H20.5047V25.9462L18.9912 25.1895Z" fill="#FFCC00"/>
<path d="M18.9912 25.1895L20.2157 26.0791L20.6605 25.4668L18.9912 25.1895Z" fill="#FFCC00"/>
<path d="M19.5381 26.8818L20.0058 25.4424L20.7255 25.6762L19.5381 26.8818Z" fill="#FFCC00"/>
<path d="M19.5381 26.8818L20.7625 25.9922L20.3177 25.38L19.5381 26.8818Z" fill="#FFCC00"/>
<path d="M11.3281 15.0625L10.8604 16.5019L11.5801 16.7358L11.3281 15.0625Z" fill="#FFCC00"/>
<path d="M11.3281 15.0625L11.7958 16.5019L11.0761 16.7358L11.3281 15.0625Z" fill="#FFCC00"/>
<path d="M12.7812 16.1084H11.2677V16.8652L12.7812 16.1084Z" fill="#FFCC00"/>
<path d="M12.7812 16.1084L11.5568 16.998L11.112 16.3858L12.7812 16.1084Z" fill="#FFCC00"/>
<path d="M12.2344 17.8008L11.7667 16.3613L11.047 16.5952L12.2344 17.8008Z" fill="#FFCC00"/>
<path d="M12.2344 17.8008L11.0099 16.9112L11.4547 16.2989L12.2344 17.8008Z" fill="#FFCC00"/>
<path d="M9.91309 16.1084H11.4266V16.8652L9.91309 16.1084Z" fill="#FFCC00"/>
<path d="M9.91309 16.1084L11.1375 16.998L11.5824 16.3858L9.91309 16.1084Z" fill="#FFCC00"/>
<path d="M10.46 17.8008L10.9277 16.3613L11.6474 16.5952L10.46 17.8008Z" fill="#FFCC00"/>
<path d="M10.46 17.8008L11.6844 16.9112L11.2396 16.2989L10.46 17.8008Z" fill="#FFCC00"/>
<path d="M14.9844 9.93579L16.2088 9.04617L15.764 8.43394L14.9844 9.93579Z" fill="#FFCC00"/>
<path d="M14.9844 9.93579L15.4521 8.49635L16.1718 8.7302L14.9844 9.93579Z" fill="#FFCC00"/>
<path d="M14.4297 8.24414L15.6541 9.13376L16.099 8.52153L14.4297 8.24414Z" fill="#FFCC00"/>
<path d="M14.4297 8.24414H15.9432V9.0009L14.4297 8.24414Z" fill="#FFCC00"/>
<path d="M15.8672 7.19824L15.3995 8.63768L16.1192 8.87153L15.8672 7.19824Z" fill="#FFCC00"/>
<path d="M15.8672 7.19824L16.3349 8.63768L15.6152 8.87153L15.8672 7.19824Z" fill="#FFCC00"/>
<path d="M16.7578 9.93579L15.5334 9.04617L15.9782 8.43394L16.7578 9.93579Z" fill="#FFCC00"/>
<path d="M16.7578 9.93579L16.2901 8.49635L15.5704 8.7302L16.7578 9.93579Z" fill="#FFCC00"/>
<path d="M17.3047 8.24414L16.0802 9.13376L15.6354 8.52153L17.3047 8.24414Z" fill="#FFCC00"/>
<path d="M17.3047 8.24414H15.7912V9.0009L17.3047 8.24414Z" fill="#FFCC00"/>
<path d="M13.4375 13.2605L12.9698 11.8211L12.2501 12.0549L13.4375 13.2605Z" fill="#FFCC00"/>
<path d="M13.4375 13.2605L12.213 12.3709L12.6579 11.7586L13.4375 13.2605Z" fill="#FFCC00"/>
<path d="M11.6797 13.2598L12.9041 12.3701L12.4593 11.7579L11.6797 13.2598Z" fill="#FFCC00"/>
<path d="M11.6797 13.2598L12.1474 11.8203L12.8671 12.0542L11.6797 13.2598Z" fill="#FFCC00"/>
<path d="M11.1328 11.5681L12.3573 12.4577L12.8021 11.8455L11.1328 11.5681Z" fill="#FFCC00"/>
<path d="M11.1328 11.5681H12.6463V12.3249L11.1328 11.5681Z" fill="#FFCC00"/>
<path d="M13.9912 11.5679L12.7668 12.4575L12.3219 11.8453L13.9912 11.5679Z" fill="#FFCC00"/>
<path d="M13.9912 11.5679H12.4777V12.3246L13.9912 11.5679Z" fill="#FFCC00"/>
<path d="M12.5537 10.522L13.0214 11.9614L12.3017 12.1953L12.5537 10.522Z" fill="#FFCC00"/>
<path d="M12.5537 10.522L12.086 11.9614L12.8057 12.1953L12.5537 10.522Z" fill="#FFCC00"/>
<path d="M14 20.6487H12.4865V21.4054L14 20.6487Z" fill="#FFCC00"/>
<path d="M14 20.6487L12.7755 21.5383L12.3307 20.9261L14 20.6487Z" fill="#FFCC00"/>
<path d="M13.4609 22.3408L12.9932 20.9014L12.2735 21.1352L13.4609 22.3408Z" fill="#FFCC00"/>
<path d="M13.4609 22.3408L12.2365 21.4512L12.6813 20.839L13.4609 22.3408Z" fill="#FFCC00"/>
<path d="M11.6797 22.3403L12.9041 21.4507L12.4593 20.8385L11.6797 22.3403Z" fill="#FFCC00"/>
<path d="M11.6797 22.3403L12.1474 20.9009L12.8671 21.1347L11.6797 22.3403Z" fill="#FFCC00"/>
<path d="M12.5781 19.603L13.0458 21.0425L12.3261 21.2763L12.5781 19.603Z" fill="#FFCC00"/>
<path d="M12.5781 19.603L12.1104 21.0425L12.8301 21.2763L12.5781 19.603Z" fill="#FFCC00"/>
<path d="M11.1396 20.6492H12.6532V21.4059L11.1396 20.6492Z" fill="#FFCC00"/>
<path d="M11.1396 20.6492L12.3641 21.5388L12.8089 20.9266L11.1396 20.6492Z" fill="#FFCC00"/>
<path d="M17.3203 23.9727H15.8068V24.7294L17.3203 23.9727Z" fill="#FFCC00"/>
<path d="M17.3203 23.9727L16.0959 24.8623L15.651 24.25L17.3203 23.9727Z" fill="#FFCC00"/>
<path d="M16.7812 25.6648L16.3135 24.2254L15.5938 24.4592L16.7812 25.6648Z" fill="#FFCC00"/>
<path d="M16.7812 25.6648L15.5568 24.7752L16.0016 24.1629L16.7812 25.6648Z" fill="#FFCC00"/>
<path d="M15 25.6643L16.2245 24.7747L15.7796 24.1625L15 25.6643Z" fill="#FFCC00"/>
<path d="M15 25.6643L15.4677 24.2249L16.1874 24.4587L15 25.6643Z" fill="#FFCC00"/>
<path d="M15.8984 22.927L16.3661 24.3664L15.6464 24.6003L15.8984 22.927Z" fill="#FFCC00"/>
<path d="M15.8984 22.927L15.4307 24.3664L16.1505 24.6003L15.8984 22.927Z" fill="#FFCC00"/>
<path d="M14.46 23.9731H15.9735V24.7299L14.46 23.9731Z" fill="#FFCC00"/>
<path d="M14.46 23.9731L15.6844 24.8628L16.1292 24.2505L14.46 23.9731Z" fill="#FFCC00"/>
<path d="M29.5146 15.0627L29.9823 16.5022L29.2626 16.736L29.5146 15.0627Z" fill="#FFCC00"/>
<path d="M29.5146 15.0627L29.0469 16.5022L29.7667 16.736L29.5146 15.0627Z" fill="#FFCC00"/>
<path d="M28.0615 16.1086H29.575V16.8654L28.0615 16.1086Z" fill="#FFCC00"/>
<path d="M28.0615 16.1086L29.286 16.9983L29.7308 16.386L28.0615 16.1086Z" fill="#FFCC00"/>
<path d="M28.6084 17.801L29.0761 16.3616L29.7958 16.5954L28.6084 17.801Z" fill="#FFCC00"/>
<path d="M28.6084 17.801L29.8329 16.9114L29.388 16.2992L28.6084 17.801Z" fill="#FFCC00"/>
<path d="M30.9297 16.1086H29.4162V16.8654L30.9297 16.1086Z" fill="#FFCC00"/>
<path d="M30.9297 16.1086L29.7052 16.9983L29.2604 16.386L30.9297 16.1086Z" fill="#FFCC00"/>
<path d="M30.3828 17.801L29.9151 16.3616L29.1954 16.5954L30.3828 17.801Z" fill="#FFCC00"/>
<path d="M30.3828 17.801L29.1584 16.9114L29.6032 16.2992L30.3828 17.801Z" fill="#FFCC00"/>
<path d="M25.8584 9.93604L24.6339 9.04641L25.0788 8.43419L25.8584 9.93604Z" fill="#FFCC00"/>
<path d="M25.8584 9.93604L25.3907 8.4966L24.671 8.73045L25.8584 9.93604Z" fill="#FFCC00"/>
<path d="M26.4131 8.24438L25.1886 9.13401L24.7438 8.52178L26.4131 8.24438Z" fill="#FFCC00"/>
<path d="M26.4131 8.24438H24.8996V9.00114L26.4131 8.24438Z" fill="#FFCC00"/>
<path d="M24.9756 7.19849L25.4433 8.63792L24.7236 8.87177L24.9756 7.19849Z" fill="#FFCC00"/>
<path d="M24.9756 7.19849L24.5079 8.63792L25.2276 8.87177L24.9756 7.19849Z" fill="#FFCC00"/>
<path d="M24.085 9.93604L25.3094 9.04641L24.8646 8.43419L24.085 9.93604Z" fill="#FFCC00"/>
<path d="M24.085 9.93604L24.5527 8.4966L25.2724 8.73045L24.085 9.93604Z" fill="#FFCC00"/>
<path d="M23.5381 8.24438L24.7625 9.13401L25.2074 8.52178L23.5381 8.24438Z" fill="#FFCC00"/>
<path d="M23.5381 8.24438H25.0516V9.00114L23.5381 8.24438Z" fill="#FFCC00"/>
<path d="M27.4053 13.2607L27.873 11.8213L28.5927 12.0552L27.4053 13.2607Z" fill="#FFCC00"/>
<path d="M27.4053 13.2607L28.6297 12.3711L28.1849 11.7589L27.4053 13.2607Z" fill="#FFCC00"/>
<path d="M29.1631 13.26L27.9386 12.3704L28.3834 11.7582L29.1631 13.26Z" fill="#FFCC00"/>
<path d="M29.1631 13.26L28.6954 11.8206L27.9757 12.0544L29.1631 13.26Z" fill="#FFCC00"/>
<path d="M29.71 11.5684L28.4855 12.458L28.0407 11.8458L29.71 11.5684Z" fill="#FFCC00"/>
<path d="M29.71 11.5684H28.1964V12.3251L29.71 11.5684Z" fill="#FFCC00"/>
<path d="M26.8516 11.5681L28.076 12.4577L28.5208 11.8455L26.8516 11.5681Z" fill="#FFCC00"/>
<path d="M26.8516 11.5681H28.3651V12.3249L26.8516 11.5681Z" fill="#FFCC00"/>
<path d="M28.2891 10.5222L27.8214 11.9617L28.5411 12.1955L28.2891 10.5222Z" fill="#FFCC00"/>
<path d="M28.2891 10.5222L28.7568 11.9617L28.037 12.1955L28.2891 10.5222Z" fill="#FFCC00"/>
<path d="M26.8428 20.6489H28.3563V21.4057L26.8428 20.6489Z" fill="#FFCC00"/>
<path d="M26.8428 20.6489L28.0672 21.5385L28.512 20.9263L26.8428 20.6489Z" fill="#FFCC00"/>
<path d="M27.3818 22.3411L27.8495 20.9016L28.5693 21.1355L27.3818 22.3411Z" fill="#FFCC00"/>
<path d="M27.3818 22.3411L28.6063 21.4514L28.1615 20.8392L27.3818 22.3411Z" fill="#FFCC00"/>
<path d="M29.1631 22.3406L27.9386 21.451L28.3834 20.8387L29.1631 22.3406Z" fill="#FFCC00"/>
<path d="M29.1631 22.3406L28.6954 20.9011L27.9757 21.135L29.1631 22.3406Z" fill="#FFCC00"/>
<path d="M28.2646 19.6033L27.7969 21.0427L28.5167 21.2766L28.2646 19.6033Z" fill="#FFCC00"/>
<path d="M28.2646 19.6033L28.7323 21.0427L28.0126 21.2766L28.2646 19.6033Z" fill="#FFCC00"/>
<path d="M29.7031 20.6494H28.1896V21.4062L29.7031 20.6494Z" fill="#FFCC00"/>
<path d="M29.7031 20.6494L28.4787 21.539L28.0339 20.9268L29.7031 20.6494Z" fill="#FFCC00"/>
<path d="M23.5225 23.9729H25.036V24.7297L23.5225 23.9729Z" fill="#FFCC00"/>
<path d="M23.5225 23.9729L24.7469 24.8625L25.1917 24.2503L23.5225 23.9729Z" fill="#FFCC00"/>
<path d="M24.0615 25.665L24.5292 24.2256L25.2489 24.4595L24.0615 25.665Z" fill="#FFCC00"/>
<path d="M24.0615 25.665L25.286 24.7754L24.8412 24.1632L24.0615 25.665Z" fill="#FFCC00"/>
<path d="M25.8428 25.6646L24.6183 24.7749L25.0631 24.1627L25.8428 25.6646Z" fill="#FFCC00"/>
<path d="M25.8428 25.6646L25.3751 24.2251L24.6554 24.459L25.8428 25.6646Z" fill="#FFCC00"/>
<path d="M24.9443 22.9272L24.4766 24.3667L25.1964 24.6005L24.9443 22.9272Z" fill="#FFCC00"/>
<path d="M24.9443 22.9272L25.412 24.3667L24.6923 24.6005L24.9443 22.9272Z" fill="#FFCC00"/>
<path d="M26.3828 23.9734H24.8693V24.7301L26.3828 23.9734Z" fill="#FFCC00"/>
<path d="M26.3828 23.9734L25.1584 24.863L24.7135 24.2508L26.3828 23.9734Z" fill="#FFCC00"/>
</g>
<path d="M49.7798 14.5V8.05762H51.8672C52.6582 8.05762 53.1738 8.08984 53.4141 8.1543C53.7832 8.25098 54.0923 8.46191 54.3413 8.78711C54.5903 9.10938 54.7148 9.52686 54.7148 10.0396C54.7148 10.4351 54.6431 10.7676 54.4995 11.0371C54.356 11.3066 54.1729 11.519 53.9502 11.6743C53.7305 11.8267 53.5063 11.9277 53.2778 11.9775C52.9673 12.0391 52.5176 12.0698 51.9287 12.0698H51.0806V14.5H49.7798ZM51.0806 9.14746V10.9756H51.7925C52.3052 10.9756 52.6479 10.9419 52.8208 10.8745C52.9937 10.8071 53.1284 10.7017 53.2251 10.5581C53.3247 10.4146 53.3745 10.2476 53.3745 10.0571C53.3745 9.82275 53.3057 9.62939 53.168 9.47705C53.0303 9.32471 52.856 9.22949 52.645 9.19141C52.4897 9.16211 52.1777 9.14746 51.709 9.14746H51.0806ZM55.9671 14.5V8.05762H58.7049C59.3934 8.05762 59.8929 8.11621 60.2034 8.2334C60.5169 8.34766 60.7674 8.55273 60.9549 8.84863C61.1424 9.14453 61.2362 9.48291 61.2362 9.86377C61.2362 10.3472 61.0941 10.7471 60.8099 11.0635C60.5257 11.377 60.1009 11.5747 59.5355 11.6567C59.8167 11.8208 60.0482 12.001 60.2298 12.1973C60.4144 12.3936 60.6619 12.7422 60.9725 13.2432L61.7591 14.5H60.2034L59.263 13.0981C58.929 12.5972 58.7005 12.2822 58.5775 12.1533C58.4544 12.0215 58.324 11.9321 58.1863 11.8853C58.0487 11.8354 57.8304 11.8105 57.5316 11.8105H57.2679V14.5H55.9671ZM57.2679 10.7822H58.2303C58.8543 10.7822 59.244 10.7559 59.3992 10.7031C59.5545 10.6504 59.6761 10.5596 59.764 10.4307C59.8519 10.3018 59.8958 10.1406 59.8958 9.94727C59.8958 9.73047 59.8372 9.55615 59.72 9.42432C59.6058 9.28955 59.4432 9.20459 59.2322 9.16943C59.1268 9.15479 58.8104 9.14746 58.283 9.14746H57.2679V10.7822ZM62.3829 11.3184C62.3829 10.6621 62.4811 10.1113 62.6774 9.66602C62.8239 9.33789 63.0231 9.04346 63.275 8.78271C63.5299 8.52197 63.8082 8.32861 64.11 8.20264C64.5114 8.03271 64.9743 7.94775 65.4987 7.94775C66.4479 7.94775 67.2067 8.24219 67.775 8.83105C68.3463 9.41992 68.632 10.2388 68.632 11.2876C68.632 12.3276 68.3493 13.1421 67.7838 13.731C67.2184 14.3169 66.4625 14.6099 65.5162 14.6099C64.5582 14.6099 63.7965 14.3184 63.2311 13.7354C62.6657 13.1494 62.3829 12.3438 62.3829 11.3184ZM63.7233 11.2744C63.7233 12.0039 63.8917 12.5576 64.2287 12.9355C64.5656 13.3105 64.9933 13.498 65.5119 13.498C66.0304 13.498 66.4552 13.312 66.7863 12.9399C67.1203 12.5649 67.2872 12.0039 67.2872 11.2568C67.2872 10.5186 67.1246 9.96777 66.7995 9.60449C66.4772 9.24121 66.048 9.05957 65.5119 9.05957C64.9757 9.05957 64.5436 9.24414 64.2155 9.61328C63.8873 9.97949 63.7233 10.5332 63.7233 11.2744ZM72.8286 12.1313V11.0459H75.6323V13.6123C75.3598 13.876 74.9643 14.1089 74.4458 14.311C73.9301 14.5103 73.4072 14.6099 72.8769 14.6099C72.2031 14.6099 71.6157 14.4692 71.1147 14.188C70.6137 13.9038 70.2373 13.4995 69.9853 12.9751C69.7334 12.4478 69.6074 11.875 69.6074 11.2568C69.6074 10.5859 69.748 9.98975 70.0293 9.46826C70.3105 8.94678 70.7221 8.54688 71.2641 8.26855C71.6772 8.05469 72.1914 7.94775 72.8066 7.94775C73.6064 7.94775 74.2304 8.11621 74.6787 8.45312C75.1298 8.78711 75.4199 9.25 75.5488 9.8418L74.2568 10.0835C74.166 9.76709 73.9946 9.51807 73.7426 9.33643C73.4936 9.15186 73.1816 9.05957 72.8066 9.05957C72.2382 9.05957 71.7856 9.23975 71.4487 9.6001C71.1147 9.96045 70.9477 10.4951 70.9477 11.2041C70.9477 11.9688 71.1176 12.543 71.4575 12.9268C71.7973 13.3076 72.2426 13.498 72.7934 13.498C73.0659 13.498 73.3383 13.4453 73.6108 13.3398C73.8862 13.2314 74.122 13.1011 74.3183 12.9487V12.1313H72.8286ZM77.0208 14.5V8.05762H79.7586C80.4471 8.05762 80.9466 8.11621 81.2571 8.2334C81.5706 8.34766 81.8211 8.55273 82.0086 8.84863C82.1961 9.14453 82.2898 9.48291 82.2898 9.86377C82.2898 10.3472 82.1477 10.7471 81.8636 11.0635C81.5794 11.377 81.1546 11.5747 80.5891 11.6567C80.8704 11.8208 81.1018 12.001 81.2835 12.1973C81.468 12.3936 81.7156 12.7422 82.0262 13.2432L82.8128 14.5H81.2571L80.3167 13.0981C79.9827 12.5972 79.7542 12.2822 79.6311 12.1533C79.5081 12.0215 79.3777 11.9321 79.24 11.8853C79.1023 11.8354 78.8841 11.8105 78.5852 11.8105H78.3216V14.5H77.0208ZM78.3216 10.7822H79.284C79.908 10.7822 80.2976 10.7559 80.4529 10.7031C80.6082 10.6504 80.7298 10.5596 80.8177 10.4307C80.9055 10.3018 80.9495 10.1406 80.9495 9.94727C80.9495 9.73047 80.8909 9.55615 80.7737 9.42432C80.6595 9.28955 80.4969 9.20459 80.2859 9.16943C80.1804 9.15479 79.864 9.14746 79.3367 9.14746H78.3216V10.7822ZM89.5099 14.5H88.0948L87.5323 13.0366H84.9571L84.4254 14.5H83.0455L85.5548 8.05762H86.9303L89.5099 14.5ZM87.1148 11.9512L86.2271 9.56055L85.357 11.9512H87.1148ZM90.3666 14.5V8.05762H92.3134L93.4823 12.4521L94.6381 8.05762H96.5893V14.5H95.3808V9.42871L94.102 14.5H92.8495L91.5751 9.42871V14.5H90.3666ZM98.0437 14.5V8.05762H99.9905L101.159 12.4521L102.315 8.05762H104.266V14.5H103.058V9.42871L101.779 14.5H100.527L99.2522 9.42871V14.5H98.0437ZM105.738 14.5V8.05762H110.515V9.14746H107.039V10.5757H110.273V11.6611H107.039V13.4146H110.638V14.5H105.738ZM114.342 11.3184C114.342 10.6621 114.441 10.1113 114.637 9.66602C114.783 9.33789 114.983 9.04346 115.235 8.78271C115.489 8.52197 115.768 8.32861 116.07 8.20264C116.471 8.03271 116.934 7.94775 117.458 7.94775C118.407 7.94775 119.166 8.24219 119.735 8.83105C120.306 9.41992 120.592 10.2388 120.592 11.2876C120.592 12.3276 120.309 13.1421 119.743 13.731C119.178 14.3169 118.422 14.6099 117.476 14.6099C116.518 14.6099 115.756 14.3184 115.191 13.7354C114.625 13.1494 114.342 12.3438 114.342 11.3184ZM115.683 11.2744C115.683 12.0039 115.851 12.5576 116.188 12.9355C116.525 13.3105 116.953 13.498 117.471 13.498C117.99 13.498 118.415 13.312 118.746 12.9399C119.08 12.5649 119.247 12.0039 119.247 11.2568C119.247 10.5186 119.084 9.96777 118.759 9.60449C118.437 9.24121 118.008 9.05957 117.471 9.05957C116.935 9.05957 116.503 9.24414 116.175 9.61328C115.847 9.97949 115.683 10.5332 115.683 11.2744ZM121.8 14.5V8.05762H126.216V9.14746H123.101V10.6724H125.79V11.7622H123.101V14.5H121.8ZM51.23 24.5V19.1475H49.3184V18.0576H54.438V19.1475H52.5308V24.5H51.23ZM55.4661 24.5V18.0576H56.7669V20.5933H59.3157V18.0576H60.6165V24.5H59.3157V21.6831H56.7669V24.5H55.4661ZM62.1456 24.5V18.0576H66.9225V19.1475H63.4464V20.5757H66.6808V21.6611H63.4464V23.4146H67.0455V24.5H62.1456ZM71.0135 24.5V18.0576H75.7903V19.1475H72.3142V20.5757H75.5486V21.6611H72.3142V23.4146H75.9134V24.5H71.0135ZM77.1876 18.0576H78.4884V21.5469C78.4884 22.1006 78.5045 22.4595 78.5367 22.6235C78.5924 22.8872 78.7242 23.0996 78.9322 23.2607C79.1432 23.4189 79.4303 23.498 79.7936 23.498C80.1627 23.498 80.441 23.4233 80.6285 23.2739C80.816 23.1216 80.9288 22.9355 80.9669 22.7158C81.005 22.4961 81.024 22.1313 81.024 21.6216V18.0576H82.3248V21.4414C82.3248 22.2148 82.2896 22.7612 82.2193 23.0806C82.149 23.3999 82.0187 23.6694 81.8282 23.8892C81.6407 24.1089 81.3888 24.2847 81.0724 24.4165C80.756 24.5454 80.3429 24.6099 79.8331 24.6099C79.2179 24.6099 78.7506 24.5396 78.4312 24.3989C78.1148 24.2554 77.8644 24.0708 77.6798 23.8452C77.4952 23.6167 77.3736 23.3779 77.315 23.1289C77.2301 22.7598 77.1876 22.2148 77.1876 21.4941V18.0576ZM83.8847 24.5V18.0576H86.6225C87.311 18.0576 87.8105 18.1162 88.121 18.2334C88.4345 18.3477 88.685 18.5527 88.8725 18.8486C89.06 19.1445 89.1537 19.4829 89.1537 19.8638C89.1537 20.3472 89.0116 20.7471 88.7275 21.0635C88.4433 21.377 88.0185 21.5747 87.453 21.6567C87.7343 21.8208 87.9657 22.001 88.1474 22.1973C88.332 22.3936 88.5795 22.7422 88.8901 23.2432L89.6767 24.5H88.121L87.1806 23.0981C86.8466 22.5972 86.6181 22.2822 86.495 22.1533C86.372 22.0215 86.2416 21.9321 86.1039 21.8853C85.9662 21.8354 85.748 21.8105 85.4491 21.8105H85.1855V24.5H83.8847ZM85.1855 20.7822H86.1479C86.7719 20.7822 87.1615 20.7559 87.3168 20.7031C87.4721 20.6504 87.5937 20.5596 87.6816 20.4307C87.7695 20.3018 87.8134 20.1406 87.8134 19.9473C87.8134 19.7305 87.7548 19.5562 87.6376 19.4243C87.5234 19.2896 87.3608 19.2046 87.1498 19.1694C87.0444 19.1548 86.728 19.1475 86.2006 19.1475H85.1855V20.7822ZM90.3005 21.3184C90.3005 20.6621 90.3987 20.1113 90.595 19.666C90.7414 19.3379 90.9407 19.0435 91.1926 18.7827C91.4475 18.522 91.7258 18.3286 92.0276 18.2026C92.4289 18.0327 92.8918 17.9478 93.4162 17.9478C94.3655 17.9478 95.1243 18.2422 95.6926 18.8311C96.2639 19.4199 96.5495 20.2388 96.5495 21.2876C96.5495 22.3276 96.2668 23.1421 95.7014 23.731C95.136 24.3169 94.3801 24.6099 93.4338 24.6099C92.4758 24.6099 91.7141 24.3184 91.1487 23.7354C90.5832 23.1494 90.3005 22.3438 90.3005 21.3184ZM91.6409 21.2744C91.6409 22.0039 91.8093 22.5576 92.1462 22.9355C92.4831 23.3105 92.9109 23.498 93.4294 23.498C93.948 23.498 94.3728 23.312 94.7038 22.9399C95.0378 22.5649 95.2048 22.0039 95.2048 21.2568C95.2048 20.5186 95.0422 19.9678 94.717 19.6045C94.3948 19.2412 93.9656 19.0596 93.4294 19.0596C92.8933 19.0596 92.4612 19.2441 92.133 19.6133C91.8049 19.9795 91.6409 20.5332 91.6409 21.2744ZM97.7491 24.5V18.0576H99.8365C100.627 18.0576 101.143 18.0898 101.383 18.1543C101.752 18.251 102.062 18.4619 102.311 18.7871C102.56 19.1094 102.684 19.5269 102.684 20.0396C102.684 20.4351 102.612 20.7676 102.469 21.0371C102.325 21.3066 102.142 21.519 101.919 21.6743C101.7 21.8267 101.476 21.9277 101.247 21.9775C100.937 22.0391 100.487 22.0698 99.898 22.0698H99.0499V24.5H97.7491ZM99.0499 19.1475V20.9756H99.7618C100.274 20.9756 100.617 20.9419 100.79 20.8745C100.963 20.8071 101.098 20.7017 101.194 20.5581C101.294 20.4146 101.344 20.2476 101.344 20.0571C101.344 19.8228 101.275 19.6294 101.137 19.4771C101 19.3247 100.825 19.2295 100.614 19.1914C100.459 19.1621 100.147 19.1475 99.6783 19.1475H99.0499ZM103.932 24.5V18.0576H108.709V19.1475H105.233V20.5757H108.467V21.6611H105.233V23.4146H108.832V24.5H103.932ZM115.925 24.5H114.509L113.947 23.0366H111.372L110.84 24.5H109.46L111.969 18.0576H113.345L115.925 24.5ZM113.529 21.9512L112.642 19.5605L111.772 21.9512H113.529ZM116.812 24.5V18.0576H118.078L120.714 22.3599V18.0576H121.923V24.5H120.618L118.021 20.2988V24.5H116.812ZM126.159 18.0576H127.46V21.5469C127.46 22.1006 127.476 22.4595 127.508 22.6235C127.564 22.8872 127.695 23.0996 127.903 23.2607C128.114 23.4189 128.402 23.498 128.765 23.498C129.134 23.498 129.412 23.4233 129.6 23.2739C129.787 23.1216 129.9 22.9355 129.938 22.7158C129.976 22.4961 129.995 22.1313 129.995 21.6216V18.0576H131.296V21.4414C131.296 22.2148 131.261 22.7612 131.191 23.0806C131.12 23.3999 130.99 23.6694 130.799 23.8892C130.612 24.1089 130.36 24.2847 130.044 24.4165C129.727 24.5454 129.314 24.6099 128.804 24.6099C128.189 24.6099 127.722 24.5396 127.402 24.3989C127.086 24.2554 126.836 24.0708 126.651 23.8452C126.466 23.6167 126.345 23.3779 126.286 23.1289C126.201 22.7598 126.159 22.2148 126.159 21.4941V18.0576ZM132.865 24.5V18.0576H134.13L136.767 22.3599V18.0576H137.976V24.5H136.67L134.073 20.2988V24.5H132.865ZM139.496 24.5V18.0576H140.797V24.5H139.496ZM141.957 21.3184C141.957 20.6621 142.055 20.1113 142.251 19.666C142.398 19.3379 142.597 19.0435 142.849 18.7827C143.104 18.522 143.382 18.3286 143.684 18.2026C144.085 18.0327 144.548 17.9478 145.072 17.9478C146.022 17.9478 146.78 18.2422 147.349 18.8311C147.92 19.4199 148.206 20.2388 148.206 21.2876C148.206 22.3276 147.923 23.1421 147.358 23.731C146.792 24.3169 146.036 24.6099 145.09 24.6099C144.132 24.6099 143.37 24.3184 142.805 23.7354C142.239 23.1494 141.957 22.3438 141.957 21.3184ZM143.297 21.2744C143.297 22.0039 143.465 22.5576 143.802 22.9355C144.139 23.3105 144.567 23.498 145.086 23.498C145.604 23.498 146.029 23.312 146.36 22.9399C146.694 22.5649 146.861 22.0039 146.861 21.2568C146.861 20.5186 146.698 19.9678 146.373 19.6045C146.051 19.2412 145.622 19.0596 145.086 19.0596C144.549 19.0596 144.117 19.2441 143.789 19.6133C143.461 19.9795 143.297 20.5332 143.297 21.2744ZM149.418 24.5V18.0576H150.684L153.321 22.3599V18.0576H154.529V24.5H153.224L150.627 20.2988V24.5H149.418Z" fill="white"/>
<g clip-path="url(#clip1_502_10958)">
<path d="M257.363 27.2209H257.852V28.9127H257.872C257.955 28.7686 258.075 28.6491 258.219 28.5662C258.371 28.4697 258.548 28.4201 258.728 28.4235C259.075 28.4235 259.646 28.6477 259.646 29.5649V31.1751H259.177V29.626C259.177 29.198 259.014 28.8311 258.545 28.8311C258.4 28.838 258.26 28.8882 258.144 28.9755C258.027 29.0627 257.94 29.1828 257.893 29.3203C257.871 29.3933 257.857 29.4685 257.852 29.5445V31.1751H257.363V27.2209ZM256.099 27.8324V28.4846H256.812V28.8515H256.099V30.2987C256.099 30.6248 256.201 30.8286 256.466 30.8286C256.563 30.8351 256.66 30.8212 256.751 30.7878L256.792 31.1751C256.653 31.2153 256.509 31.2359 256.364 31.2362C256.162 31.2401 255.965 31.1673 255.814 31.0324C255.673 30.8225 255.608 30.5708 255.63 30.319V28.8515H255.223V28.4846H255.63V27.9751L256.099 27.8324ZM253.572 29.3203C253.572 28.9942 253.551 28.7292 253.531 28.4846H253.959V29.0146H253.979C254.032 28.852 254.131 28.7088 254.266 28.6035C254.4 28.4981 254.563 28.4354 254.734 28.4235H254.876V28.8923H254.713C254.546 28.8967 254.387 28.9608 254.263 29.073C254.14 29.1853 254.061 29.3381 254.041 29.5037C254.041 29.5853 254.02 29.6668 254.02 29.728V31.1547H253.551L253.572 29.3203ZM252.777 30.5229C252.77 30.7411 252.784 30.9594 252.818 31.1751H252.39L252.349 30.8286H252.328C252.236 30.9577 252.113 31.0623 251.971 31.1333C251.829 31.2043 251.672 31.2397 251.513 31.2362C251.406 31.2443 251.299 31.2302 251.198 31.195C251.097 31.1597 251.005 31.104 250.926 31.0313C250.848 30.9586 250.785 30.8705 250.742 30.7725C250.7 30.6745 250.678 30.5687 250.677 30.4617C250.677 29.8095 251.269 29.463 252.308 29.463V29.4018C252.319 29.319 252.31 29.2349 252.283 29.1559C252.256 29.0768 252.211 29.0051 252.152 28.946C252.093 28.887 252.022 28.8422 251.943 28.8153C251.864 28.7883 251.779 28.7798 251.697 28.7904C251.444 28.7882 251.196 28.859 250.983 28.9942L250.881 28.6681C251.143 28.5042 251.449 28.4258 251.758 28.4439C252.593 28.4439 252.797 28.9942 252.797 29.5445V30.5229H252.777ZM252.308 29.8095C251.758 29.7891 251.167 29.891 251.167 30.4209C251.162 30.4786 251.169 30.5366 251.187 30.5915C251.205 30.6464 251.234 30.6971 251.272 30.7407C251.31 30.7844 251.356 30.82 251.408 30.8456C251.46 30.8712 251.517 30.8862 251.574 30.8897H251.635C251.778 30.8967 251.919 30.8565 252.037 30.7755C252.155 30.6945 252.243 30.5771 252.288 30.4413C252.313 30.3907 252.327 30.335 252.328 30.2783V29.8095H252.308ZM250.107 29.4222H248.66V30.7878H250.29V31.1955H248.17V27.4451H250.188V27.8528H248.639V29.035H250.086V29.4222H250.107ZM243.89 29.2184C243.897 28.9731 243.883 28.7277 243.849 28.4846H244.298V28.9127H244.318C244.41 28.758 244.542 28.631 244.699 28.5449C244.857 28.4588 245.035 28.4169 245.215 28.4235C245.582 28.4235 246.153 28.6477 246.153 29.5649V31.1751H245.684V29.626C245.684 29.198 245.521 28.8311 245.052 28.8311C244.905 28.831 244.762 28.8787 244.644 28.9669C244.527 29.0551 244.441 29.1791 244.4 29.3203C244.378 29.3933 244.364 29.4685 244.359 29.5445V31.1751H243.87L243.89 29.2184ZM243.279 29.8095C243.279 30.8082 242.586 31.2362 241.934 31.2362C241.758 31.2304 241.585 31.1898 241.425 31.1168C241.266 31.0438 241.122 30.9398 241.003 30.811C240.883 30.6821 240.79 30.5308 240.73 30.3659C240.669 30.201 240.642 30.0258 240.649 29.8502C240.649 28.9942 241.241 28.4235 241.974 28.4235C242.708 28.4235 243.279 28.9738 243.279 29.8095ZM241.139 29.8299C241.139 30.4209 241.485 30.8694 241.954 30.8694C242.423 30.8694 242.769 30.4413 242.769 29.8095C242.769 29.1776 242.545 28.7904 241.954 28.7904C241.363 28.7904 241.139 29.3203 241.139 29.8299ZM237.388 30.6859C237.585 30.8053 237.81 30.8687 238.041 30.8694C238.387 30.8694 238.57 30.7063 238.57 30.4617C238.57 30.2375 238.428 30.1152 238.081 29.9725C237.735 29.8299 237.348 29.5445 237.348 29.2184C237.373 28.9951 237.482 28.7896 237.651 28.6424C237.821 28.4952 238.04 28.4171 238.265 28.4235C238.498 28.4267 238.728 28.4824 238.937 28.5866L238.815 28.933C238.651 28.8274 238.46 28.7708 238.265 28.77C237.979 28.77 237.816 28.933 237.816 29.1369C237.816 29.3407 237.979 29.463 238.326 29.6057C238.672 29.7483 239.019 30.0133 239.019 30.4006C239.019 30.7878 238.652 31.2158 238.02 31.2158C237.757 31.2181 237.498 31.155 237.266 31.0324L237.388 30.6859ZM234.942 29.9318C234.942 30.584 235.35 30.849 235.86 30.849C236.118 30.853 236.375 30.8044 236.614 30.7063L236.695 31.0528C236.413 31.1772 236.106 31.2331 235.798 31.2158C234.963 31.2158 234.474 30.6655 234.474 29.8502C234.474 29.035 234.942 28.4031 235.737 28.4031C236.532 28.4031 236.858 29.1776 236.858 29.6668C236.863 29.7421 236.856 29.8177 236.838 29.891H234.942V29.9318ZM236.369 29.5649C236.369 29.2592 236.227 28.77 235.697 28.77C235.167 28.77 234.983 29.2184 234.942 29.5649H236.369ZM232.293 28.4846L232.863 30.0745C232.943 30.2513 233.004 30.4357 233.047 30.6248H233.067C233.112 30.4387 233.167 30.255 233.23 30.0745L233.76 28.505H234.29L233.556 30.4209C233.21 31.3381 232.965 31.8069 232.639 32.1127C232.465 32.2659 232.255 32.3712 232.028 32.4184L231.905 32.0108C232.055 31.9539 232.193 31.8711 232.313 31.7662C232.499 31.6253 232.64 31.4344 232.721 31.2158C232.747 31.1806 232.762 31.1377 232.762 31.0936C232.762 31.0495 232.747 31.0065 232.721 30.9713L231.722 28.505L232.293 28.4846ZM229.582 29.9318C229.602 30.584 230.01 30.849 230.499 30.849C230.751 30.8529 231.001 30.8043 231.233 30.7063L231.335 31.0528C231.053 31.1772 230.746 31.2331 230.438 31.2158C229.602 31.2158 229.113 30.6655 229.113 29.8502C229.113 29.035 229.582 28.4031 230.377 28.4031C231.172 28.4031 231.498 29.1776 231.498 29.6668C231.498 29.7687 231.477 29.8299 231.477 29.891H229.582V29.9318ZM231.009 29.5649C231.029 29.2592 230.886 28.77 230.336 28.77C229.786 28.77 229.623 29.2184 229.602 29.5649H231.009ZM225.872 30.6859C226.069 30.8053 226.295 30.8687 226.525 30.8694C226.871 30.8694 227.034 30.7063 227.034 30.4617C227.034 30.2375 226.891 30.1152 226.545 29.9725C226.198 29.8299 225.832 29.5445 225.832 29.2184C225.857 28.9951 225.966 28.7896 226.135 28.6424C226.305 28.4952 226.524 28.4171 226.749 28.4235C226.976 28.4268 227.199 28.4826 227.401 28.5866L227.299 28.933C227.134 28.8301 226.944 28.7737 226.749 28.77C226.463 28.77 226.3 28.933 226.3 29.1369C226.3 29.3407 226.463 29.463 226.81 29.6057C227.156 29.7483 227.523 30.0133 227.523 30.4006C227.523 30.7878 227.156 31.2158 226.525 31.2158C226.262 31.2181 226.003 31.155 225.77 31.0324L225.872 30.6859ZM225.791 27.3229C225.666 27.7768 225.488 28.2146 225.261 28.6273L224.955 28.6681C225.093 28.2409 225.201 27.8052 225.281 27.3636L225.791 27.3229ZM222.815 29.9318C222.815 30.584 223.223 30.849 223.732 30.849C223.984 30.8529 224.234 30.8043 224.466 30.7063L224.568 31.0528C224.286 31.1772 223.979 31.2331 223.671 31.2158C222.835 31.2158 222.346 30.6655 222.346 29.8502C222.346 29.035 222.815 28.4031 223.61 28.4031C224.405 28.4031 224.731 29.1776 224.731 29.6668C224.735 29.7421 224.728 29.8177 224.711 29.891H222.815V29.9318ZM224.242 29.5649C224.262 29.2592 224.12 28.77 223.569 28.77C223.019 28.77 222.856 29.2184 222.835 29.5649H224.242ZM219.37 29.3611C219.37 29.0146 219.35 28.7292 219.35 28.4846H219.778V28.9534H219.798C219.894 28.7857 220.034 28.6474 220.203 28.554C220.372 28.4605 220.564 28.4153 220.756 28.4235C221.429 28.4235 221.898 28.9738 221.898 29.7891C221.898 30.6044 221.307 31.2362 220.675 31.2362C220.51 31.2449 220.346 31.2099 220.199 31.1348C220.053 31.0596 219.928 30.9469 219.839 30.8082H219.819V32.2757H219.35L219.37 29.3611ZM219.839 30.0745C219.843 30.144 219.857 30.2126 219.88 30.2783C219.923 30.4408 220.018 30.5848 220.15 30.688C220.283 30.7912 220.446 30.8477 220.614 30.849C221.144 30.849 221.429 30.4413 221.429 29.8095C221.429 29.198 221.144 28.8108 220.634 28.8108C220.462 28.8206 220.299 28.8854 220.166 28.9954C220.034 29.1055 219.941 29.2551 219.9 29.4222C219.88 29.4834 219.88 29.5649 219.86 29.626V30.0745H219.839ZM218.759 29.8095C218.759 30.8082 218.066 31.2362 217.414 31.2362C217.238 31.2304 217.066 31.1898 216.906 31.1168C216.746 31.0438 216.602 30.9398 216.483 30.811C216.363 30.6821 216.271 30.5308 216.21 30.3659C216.149 30.201 216.122 30.0258 216.13 29.8502C216.13 28.9942 216.721 28.4235 217.455 28.4235C218.188 28.4235 218.759 28.9738 218.759 29.8095ZM216.619 29.8299C216.619 30.4209 216.965 30.8694 217.434 30.8694C217.903 30.8694 218.249 30.4413 218.249 29.8095C218.249 29.1776 218.025 28.7904 217.434 28.7904C216.843 28.7904 216.619 29.3203 216.619 29.8299ZM214.54 29.3203C214.54 28.9942 214.54 28.7292 214.52 28.4846H214.948V29.0146H214.968C215.017 28.85 215.116 28.7047 215.251 28.5987C215.386 28.4928 215.551 28.4316 215.722 28.4235H215.844V28.8923H215.702C215.534 28.8934 215.372 28.9565 215.248 29.0693C215.124 29.1822 215.046 29.3369 215.029 29.5037C215.013 29.5774 215.006 29.6527 215.009 29.728V31.1547H214.52L214.54 29.3203ZM213.745 30.4413C213.745 30.7267 213.745 30.9713 213.765 31.1751H213.337L213.297 30.7267C213.206 30.8838 213.075 31.0139 212.917 31.1034C212.76 31.193 212.581 31.2389 212.4 31.2362C211.992 31.2362 211.483 30.9916 211.483 30.0541V28.4846H211.972V29.9725C211.972 30.4821 212.135 30.8286 212.563 30.8286C212.707 30.8271 212.846 30.7813 212.963 30.6974C213.08 30.6135 213.168 30.4956 213.215 30.3598C213.248 30.2828 213.262 30.1988 213.256 30.1152V28.4846H213.745V30.4413ZM210.749 29.4222H209.302V30.7878H210.932V31.1955H208.812V27.4451H210.83V27.8528H209.302V29.035H210.749V29.4222Z" fill="white"/>
<path d="M255.367 15.705C254.997 15.8517 254.659 16.066 254.368 16.3369C254.089 16.5856 253.866 16.8915 253.716 17.2337C253.561 17.5786 253.505 17.9594 253.553 18.3343C253.596 18.7961 253.773 19.2353 254.062 19.598C254.329 19.927 254.671 20.1859 255.061 20.3522C255.474 20.5373 255.904 20.6807 256.345 20.7802C256.736 20.8855 257.117 21.0218 257.486 21.1878C257.763 21.3056 258.002 21.4957 258.179 21.7382C258.351 22.0267 258.429 22.3613 258.403 22.6961C258.373 23.0865 258.207 23.4541 257.935 23.7356C257.649 24.021 257.221 24.1432 256.63 24.1432C256.188 24.166 255.749 24.0598 255.367 23.8375C255.082 23.6555 254.851 23.4026 254.694 23.1038C254.573 22.8346 254.51 22.5428 254.51 22.2477H253.267C253.252 22.7104 253.343 23.1704 253.532 23.5929C253.707 23.9708 253.956 24.3097 254.264 24.5898C254.572 24.8699 254.933 25.0853 255.326 25.2235C255.719 25.3606 256.132 25.4362 256.549 25.4477C256.955 25.445 257.359 25.3902 257.751 25.2846C258.11 25.1615 258.447 24.9827 258.75 24.7547C259.04 24.5228 259.277 24.2307 259.443 23.8987C259.625 23.5468 259.709 23.1527 259.688 22.7573C259.711 22.2698 259.605 21.7848 259.382 21.3509C259.166 20.9686 258.857 20.6464 258.485 20.4133C258.098 20.1637 257.68 19.965 257.242 19.8222L256.06 19.4146C255.755 19.3134 255.467 19.1693 255.203 18.9866C255.095 18.9069 255.002 18.8065 254.932 18.691C254.862 18.5756 254.816 18.4474 254.796 18.3139C254.768 18.1525 254.776 17.9869 254.818 17.8286C254.86 17.6703 254.936 17.523 255.04 17.3968C255.233 17.1345 255.494 16.9301 255.795 16.8057C256.036 16.7172 256.291 16.669 256.549 16.663C256.895 16.6663 257.233 16.765 257.527 16.9483C257.817 17.1345 258.033 17.4154 258.139 17.7432H259.463C259.419 17.5164 259.344 17.2969 259.239 17.091C259.079 16.8234 258.895 16.5709 258.689 16.3369C258.442 16.075 258.143 15.8668 257.812 15.7254C257.42 15.5592 256.995 15.4826 256.569 15.5012C256.157 15.4639 255.743 15.5341 255.367 15.705Z" fill="white"/>
<path d="M251.184 15.9292V20.9228C251.181 21.2941 251.104 21.6611 250.96 22.0031C250.826 22.3331 250.625 22.6316 250.369 22.8795C250.115 23.1237 249.826 23.3297 249.513 23.491C249.015 23.7119 248.461 23.7717 247.927 23.6621C247.393 23.5524 246.908 23.2788 246.537 22.8795C246.281 22.6316 246.08 22.3331 245.946 22.0031C245.802 21.6611 245.725 21.2941 245.722 20.9228V15.9292H244.438V20.9024C244.432 21.443 244.543 21.9785 244.764 22.4719C244.966 22.9557 245.257 23.398 245.62 23.7763C245.983 24.1448 246.411 24.4421 246.884 24.6528C247.363 24.8716 247.885 24.9829 248.412 24.9789C248.946 24.9829 249.474 24.8717 249.961 24.6528C250.434 24.4421 250.862 24.1448 251.225 23.7763C251.974 23.0077 252.391 21.9757 252.387 20.9024V15.9292H251.184Z" fill="white"/>
<path d="M237.288 15.8478C236.714 16.1074 236.189 16.4661 235.739 16.9077C235.297 17.3725 234.938 17.9104 234.679 18.4975C234.19 19.742 234.19 21.1256 234.679 22.3701C234.931 22.9613 235.29 23.5004 235.739 23.9599C236.184 24.4079 236.71 24.7676 237.288 25.0198C237.88 25.2724 238.517 25.4042 239.16 25.4073C239.804 25.4105 240.442 25.2849 241.036 25.0381C241.63 24.7912 242.169 24.428 242.621 23.9698C243.073 23.5117 243.429 22.9678 243.668 22.3701L243.729 22.2274H242.363C242.202 22.5345 241.996 22.8161 241.752 23.0631C241.418 23.3981 241.024 23.6677 240.59 23.858C240.151 24.0634 239.669 24.1612 239.184 24.1433C238.705 24.1433 238.232 24.0478 237.791 23.8623C237.35 23.6768 236.95 23.4051 236.616 23.0631C236.272 22.721 236 22.3144 235.815 21.8666C235.629 21.4188 235.534 20.9388 235.535 20.4542C235.538 19.958 235.634 19.4668 235.821 19.007C235.998 18.5607 236.269 18.1576 236.616 17.8249C237.119 17.305 237.769 16.9506 238.479 16.8086C239.189 16.6666 239.925 16.7438 240.59 17.03C241.028 17.2129 241.423 17.4834 241.752 17.8249C241.978 18.0743 242.176 18.3476 242.343 18.6402H243.709L243.648 18.5179C243.169 17.3269 242.238 16.3741 241.059 15.8682C240.465 15.6077 239.824 15.4716 239.176 15.4681C238.527 15.4646 237.885 15.5938 237.288 15.8478Z" fill="white"/>
<path d="M232.086 24.9994H233.33V15.9293H232.086V24.9994ZM232.209 12.5255C232.064 12.6667 231.981 12.8592 231.977 13.0614C231.973 13.2636 232.049 13.4592 232.188 13.6057C232.335 13.7495 232.533 13.8299 232.739 13.8299C232.837 13.8298 232.935 13.8099 233.026 13.7714C233.117 13.7329 233.2 13.6766 233.268 13.6057C233.406 13.4595 233.483 13.2663 233.483 13.0656C233.483 12.8649 233.406 12.6717 233.268 12.5255C233.2 12.4545 233.117 12.3981 233.026 12.3596C232.935 12.3211 232.837 12.3013 232.739 12.3013C232.64 12.3013 232.542 12.3211 232.451 12.3596C232.36 12.3981 232.277 12.4545 232.209 12.5255Z" fill="white"/>
<path d="M229.335 18.4771C229.063 17.8081 228.545 17.2685 227.888 16.9689C227.561 16.8226 227.207 16.7462 226.848 16.7446C226.481 16.7432 226.118 16.8269 225.789 16.9892C225.468 17.1383 225.177 17.3456 224.932 17.6007C224.81 17.7434 224.688 17.886 224.586 18.0287V18.0899C224.584 18.672 224.733 19.2446 225.02 19.7513C225.306 20.258 225.72 20.6813 226.22 20.9796C226.72 21.2779 227.289 21.4408 227.871 21.4523C228.453 21.4638 229.028 21.3235 229.539 21.0453V19.5166C229.538 19.1602 229.469 18.8073 229.335 18.4771Z" fill="#FFCB2B"/>
<path d="M226.034 15.5625C225.767 15.62 225.507 15.709 225.26 15.8275C225.018 15.9313 224.791 16.0685 224.587 16.2351C224.4 16.3817 224.241 16.5613 224.118 16.7651V15.9294H222.875V24.9995H224.118V19.5574C224.12 19.1991 224.196 18.845 224.343 18.5179C224.489 18.1884 224.688 17.8853 224.934 17.6211C225.177 17.3642 225.468 17.1566 225.79 17.0097C226.119 16.8474 226.482 16.7636 226.85 16.7651C227.208 16.7688 227.561 16.845 227.889 16.9893C228.55 17.2831 229.07 17.8247 229.336 18.4976C229.481 18.8396 229.557 19.2066 229.56 19.5778V25.0198H230.844L230.804 19.5778C230.805 19.0332 230.701 18.4934 230.498 17.988C230.288 17.5082 229.998 17.0672 229.642 16.6835C229.279 16.315 228.85 16.0178 228.378 15.8071C227.898 15.5883 227.377 15.477 226.85 15.481C226.575 15.4666 226.3 15.4941 226.034 15.5625Z" fill="white"/>
<path d="M220.187 16.2757C219.602 16.5372 219.07 16.9033 218.617 17.3559C218.538 17.4379 218.475 17.5349 218.434 17.6413V15.9088H217.211V24.9789H218.434V20.8617C218.436 20.3655 218.533 19.8743 218.719 19.4145C218.902 18.9709 219.172 18.5688 219.514 18.2324C219.839 17.8865 220.236 17.6153 220.676 17.4375C221.115 17.2321 221.597 17.1342 222.082 17.1521V15.8884C221.431 15.8908 220.787 16.0225 220.187 16.2757Z" fill="white"/>
<path d="M208.878 17.8044C209.55 17.1281 210.463 16.7445 211.417 16.7369C212.371 16.7292 213.289 17.0982 213.973 17.7637L214.014 17.8044C214.291 18.0988 214.518 18.4361 214.686 18.8032H208.185C208.373 18.4425 208.606 18.107 208.878 17.8044ZM209.571 15.8477C208.983 16.0945 208.45 16.4547 208.001 16.9076C207.088 17.8545 206.578 19.1185 206.578 20.4337C206.578 21.749 207.088 23.013 208.001 23.9598C208.687 24.651 209.564 25.1212 210.519 25.31C211.474 25.4989 212.464 25.3978 213.362 25.0197C213.936 24.7601 214.461 24.4014 214.911 23.9598C215.353 23.4996 215.706 22.9603 215.95 22.37L215.991 22.2274H214.625C214.464 22.5345 214.258 22.8161 214.014 23.063C213.341 23.7394 212.428 24.123 211.474 24.1306C210.52 24.1382 209.602 23.7693 208.918 23.1038L208.878 23.063C208.553 22.7169 208.291 22.3169 208.103 21.8809C207.844 21.3137 207.752 20.6844 207.838 20.0668H216.297C216.264 19.5267 216.14 18.9959 215.93 18.4974C215.691 17.9046 215.337 17.3644 214.89 16.9076C214.446 16.4596 213.92 16.0999 213.341 15.8477C212.745 15.5955 212.104 15.4656 211.456 15.4656C210.808 15.4656 210.167 15.5955 209.571 15.8477Z" fill="white"/>
<path d="M199.559 23.8988C198.893 23.6069 198.327 23.1278 197.929 22.5198C197.531 21.9119 197.318 21.2013 197.317 20.4746C197.319 19.9785 197.416 19.4873 197.602 19.0275C197.98 18.144 198.679 17.4371 199.559 17.0504C199.998 16.845 200.48 16.7472 200.965 16.7651C201.448 16.7672 201.926 16.8642 202.371 17.0504C203.252 17.4282 203.948 18.1388 204.308 19.0275C204.492 19.4879 204.589 19.9787 204.593 20.4746C204.601 20.9651 204.504 21.4516 204.308 21.9014C203.948 22.79 203.252 23.5007 202.371 23.8784C201.926 24.0647 201.448 24.1617 200.965 24.1638C200.483 24.1786 200.003 24.0882 199.559 23.8988ZM199.07 15.8683C198.491 16.1205 197.965 16.4801 197.521 16.9281C197.078 17.3929 196.72 17.9308 196.461 18.5179C196.216 19.1411 196.091 19.8051 196.094 20.4746V28.6479H197.337V23.5319C197.722 24.125 198.266 24.5981 198.907 24.8976C199.542 25.2526 200.257 25.4419 200.986 25.4479C201.632 25.4464 202.272 25.3074 202.861 25.0402C203.439 24.788 203.965 24.4284 204.41 23.9804C204.863 23.5245 205.223 22.9844 205.47 22.3905C205.979 21.15 205.979 19.7585 205.47 18.5179C205.223 17.9241 204.863 17.384 204.41 16.9281C203.969 16.4757 203.442 16.1154 202.861 15.8683C202.261 15.616 201.616 15.4861 200.965 15.4861C200.314 15.4861 199.67 15.616 199.07 15.8683Z" fill="white"/>
<path d="M188.942 23.8783C188.504 23.6954 188.109 23.4249 187.78 23.0834C187.436 22.7413 187.164 22.3347 186.979 21.8869C186.793 21.4392 186.699 20.9591 186.699 20.4745C186.702 19.9784 186.798 19.4872 186.985 19.0274C187.162 18.581 187.433 18.1779 187.78 17.8452C188.283 17.3253 188.933 16.9709 189.643 16.8289C190.353 16.687 191.089 16.7642 191.754 17.0503C192.192 17.2332 192.587 17.5037 192.916 17.8452C193.595 18.5602 193.975 19.5086 193.976 20.4949C193.974 20.9844 193.877 21.4689 193.691 21.9216C193.331 22.8103 192.635 23.5209 191.754 23.8987C191.315 24.1041 190.833 24.2019 190.348 24.1841C189.865 24.1629 189.39 24.0595 188.942 23.8783ZM188.452 15.8477C187.874 16.0999 187.348 16.4596 186.903 16.9076C186.461 17.3724 186.102 17.9103 185.843 18.4974C185.354 19.742 185.354 21.1255 185.843 22.37C186.095 22.9612 186.454 23.5004 186.903 23.9598C187.344 24.4123 187.871 24.7726 188.452 25.0197C189.052 25.272 189.697 25.4019 190.348 25.4019C190.999 25.4019 191.643 25.272 192.243 25.0197C192.822 24.7675 193.348 24.4079 193.792 23.9598C194.246 23.5039 194.606 22.9639 194.852 22.37C195.362 21.1295 195.362 19.738 194.852 18.4974C194.606 17.9036 194.246 17.3635 193.792 16.9076C193.351 16.4552 192.825 16.0949 192.243 15.8477C191.643 15.5955 190.999 15.4656 190.348 15.4656C189.697 15.4656 189.052 15.5955 188.452 15.8477Z" fill="white"/>
<path d="M172.125 15.5421C172.125 23.8784 178.79 30.6249 187.045 30.6249C189.339 30.6261 191.601 30.0886 193.649 29.0555C193.654 29.0529 193.659 29.0492 193.663 29.0447C193.667 29.0402 193.67 29.0349 193.672 29.0292C193.674 29.0235 193.674 29.0175 193.674 29.0115C193.673 29.0055 193.672 28.9996 193.669 28.9943C193.669 28.9739 193.649 28.9739 193.628 28.9739C192.062 29.6093 190.386 29.928 188.696 29.9115C181.195 29.9115 175.121 23.7561 175.121 16.1536C175.121 8.551 181.215 2.39559 188.696 2.39559C191.232 2.39811 193.717 3.11185 195.868 4.45574C198.019 5.79963 199.75 7.7198 200.864 9.99813C200.866 10.0036 200.87 10.0084 200.875 10.0124C200.879 10.0164 200.884 10.0195 200.89 10.0214C200.896 10.0233 200.902 10.024 200.908 10.0235C200.914 10.023 200.92 10.0213 200.925 10.0185C200.945 10.0185 200.945 9.99814 200.945 9.97775C199.854 7.18513 197.945 4.78673 195.469 3.09589C192.992 1.40504 190.064 0.500366 187.065 0.500046C178.79 0.479664 172.125 7.22616 172.125 15.5421Z" fill="white"/>
</g>
<g clip-path="url(#clip2_502_10958)">
<path d="M314.898 15.4877C314.066 15.3337 313.111 15.3028 312.618 14.7489C312.522 14.6171 312.462 14.4619 312.446 14.2995C312.429 14.137 312.457 13.973 312.525 13.8246C312.735 13.5071 313.034 13.2586 313.385 13.1105C313.736 12.9624 314.123 12.9211 314.497 12.9919C314.835 12.9817 315.169 13.0693 315.459 13.2442C315.748 13.4191 315.981 13.6739 316.13 13.978C316.238 14.2322 316.301 14.5037 316.314 14.7798H318.596C318.616 13.8938 318.295 13.0339 317.699 12.378C317.098 11.8559 316.387 11.4766 315.619 11.2685C314.851 11.0604 314.046 11.0288 313.264 11.1761C312.154 11.3301 310.675 11.9767 310.181 13.4258C309.97 13.9851 309.937 14.5958 310.085 15.1748C310.234 15.7537 310.558 16.2725 311.013 16.6604C312.061 17.4622 314.033 17.678 314.834 17.8634C315.758 18.0452 316.221 18.1713 316.374 18.6943C316.428 18.8642 316.442 19.044 316.416 19.2201C316.389 19.3962 316.324 19.5641 316.224 19.7113C315.638 20.481 314.436 20.5434 313.481 20.2658C312.679 20.0204 312.34 19.3719 312.187 18.5083H309.784C309.791 19.2264 310.016 19.9254 310.431 20.5119C310.745 20.9859 311.158 21.3857 311.642 21.6837C312.127 21.9817 312.67 22.1706 313.234 22.2374C314.542 22.4979 315.899 22.3467 317.117 21.8046C317.606 21.5081 318.035 21.1213 318.38 20.6646C318.726 20.1502 318.924 19.5501 318.951 18.9305C318.978 18.3108 318.834 17.6958 318.533 17.1531C317.856 15.981 316.316 15.7343 314.898 15.4877Z" fill="white"/>
<path d="M306.948 12.6226C306.388 12.0287 305.69 11.5828 304.916 11.3245C304.142 11.0663 303.316 11.0038 302.512 11.1426C301.804 11.254 301.129 11.5221 300.537 11.9274C299.946 12.3326 299.452 12.8648 299.092 13.485C298.693 14.1924 298.422 14.9643 298.29 15.7656C298.043 17.6444 298.568 20.7874 301.866 22.0202C302.688 22.3149 303.57 22.4044 304.434 22.2809C305.299 22.1574 306.12 21.8247 306.826 21.3117C307.722 20.5894 308.333 19.5741 308.552 18.445H305.808C305.693 18.9365 305.409 19.3724 305.007 19.6777C304.567 19.9632 304.049 20.1048 303.524 20.0831C303 20.0614 302.495 19.8774 302.08 19.5565C301.248 18.9402 300.971 17.9244 300.94 16.4753C300.94 15.7056 301.156 14.4753 301.802 13.8874C302.129 13.6092 302.521 13.4181 302.941 13.3319C303.361 13.2456 303.797 13.267 304.206 13.3941C304.653 13.5493 305.039 13.8412 305.31 14.2283C305.581 14.6154 305.723 15.078 305.716 15.5505H301.833V17.4899H308.553C308.586 16.8066 308.524 16.122 308.368 15.4559C308.111 14.4178 307.626 13.4499 306.948 12.6226Z" fill="white"/>
<path d="M329.693 19.3612V16.0334C329.7 15.1863 329.628 14.3404 329.478 13.5067C329.293 12.7055 328.584 11.3806 326.304 11.1031C325.88 11.0728 325.425 11.0728 324.971 11.0728H324.95C324.202 11.0916 323.46 11.2263 322.753 11.4721C322.123 11.7474 321.592 12.207 321.229 12.7902C320.865 13.3734 320.687 14.053 320.718 14.7394H323.182C323.167 14.4162 323.25 14.0961 323.421 13.8212C323.591 13.5463 323.841 13.3295 324.138 13.1994C324.402 13.0941 324.684 13.0408 324.969 13.0425C325.264 13.0178 325.561 13.0515 325.843 13.1417C326.124 13.2318 326.386 13.3767 326.612 13.5679C326.746 13.7023 326.843 13.87 326.892 14.0539C326.941 14.2379 326.941 14.4315 326.89 14.6152C326.736 15.2625 326.027 15.4776 324.951 15.6321V15.6352C324.587 15.6958 324.163 15.7255 323.71 15.7861C322.416 15.94 320.567 16.5873 320.135 18.4667C320.031 19.0184 320.079 19.5881 320.274 20.1145C320.469 20.6409 320.804 21.1042 321.243 21.4546C322.023 22.0146 322.964 22.3068 323.924 22.2873C324.275 22.2897 324.626 22.2586 324.972 22.1946V22.1891C325.772 22.0004 326.515 21.6216 327.137 21.0849C327.198 21.3957 327.301 21.6966 327.445 21.9788H330.035C329.735 21.1408 329.618 20.2481 329.693 19.3612ZM326.92 18.9612C326.743 19.3355 326.464 19.6524 326.116 19.8756C325.767 20.0989 325.363 20.2195 324.949 20.2237V20.2273C324.753 20.2665 324.553 20.2754 324.355 20.254C324.079 20.2669 323.805 20.2015 323.565 20.0652C323.325 19.929 323.129 19.7276 322.999 19.4843C322.907 19.2951 322.864 19.0857 322.875 18.8756C322.885 18.6654 322.949 18.4614 323.059 18.2825C323.429 17.6358 324.076 17.5128 324.97 17.3279V17.3249C325.275 17.2867 325.576 17.2259 325.872 17.1431C326.302 17.0755 326.706 16.8947 327.042 16.6194C327.076 17.4019 327.035 18.1859 326.92 18.9606V18.9612Z" fill="white"/>
<path d="M289.379 22.5881C285.013 21.0808 284.204 17.0408 285.293 14.2123C285.583 13.5177 286.023 12.8961 286.582 12.3925C287.141 11.8889 287.805 11.5157 288.526 11.3001C289.247 11.0845 290.007 11.0317 290.751 11.1457C291.495 11.2596 292.204 11.5374 292.827 11.959C295.47 13.8541 295.191 17.4899 295.191 17.4899H288.416V15.5505H292.347C292.37 15.2794 292.333 15.0066 292.239 14.7515C292.144 14.4963 291.995 14.265 291.801 14.0741C291.439 13.6727 290.951 13.4063 290.417 13.3189C289.884 13.2315 289.336 13.3281 288.865 13.5929C288.103 13.9965 287.125 15.6747 287.699 18.0826C288.245 19.9111 289.957 20.6371 291.499 20.6365C293.796 20.6365 295.534 19.0378 295.537 16.4196C295.54 14.1419 294.741 11.9359 293.281 10.1883C291.82 8.44073 289.791 7.26309 287.549 6.86187C285.307 6.46064 282.995 6.86143 281.019 7.99397C279.043 9.12651 277.528 10.9185 276.741 13.0558C275.954 15.1931 275.944 17.5393 276.714 19.6831C277.483 21.8269 278.983 23.6313 280.949 24.7802C282.916 25.9291 285.224 26.349 287.47 25.9663C289.715 25.5837 291.754 24.4229 293.229 22.6874C291.968 23.064 290.619 23.0292 289.379 22.5881ZM280.798 17.6262C280.579 17.6266 280.365 17.562 280.183 17.4407C280.001 17.3194 279.859 17.1468 279.775 16.9447C279.691 16.7426 279.669 16.5202 279.711 16.3055C279.754 16.0908 279.859 15.8936 280.014 15.7387C280.168 15.5839 280.365 15.4783 280.58 15.4355C280.794 15.3927 281.017 15.4145 281.219 15.4981C281.421 15.5818 281.594 15.7236 281.716 15.9055C281.837 16.0874 281.902 16.3013 281.902 16.5202C281.902 16.8132 281.786 17.0943 281.579 17.3016C281.372 17.509 281.091 17.6258 280.798 17.6262Z" fill="white"/>
</g>
<defs>
<clipPath id="clip0_502_10958">
<rect width="41.125" height="28" fill="white" transform="translate(0 2.5)"/>
</clipPath>
<clipPath id="clip1_502_10958">
<rect width="87.6433" height="32" fill="white" transform="translate(172.125 0.5)"/>
</clipPath>
<clipPath id="clip2_502_10958">
<rect width="55" height="20" fill="white" transform="translate(275.769 6.5)"/>
</clipPath>
</defs>
</svg>
