<svg width="570" height="580" viewBox="0 0 570 580" fill="none" xmlns="http://www.w3.org/2000/svg">
  <g clip-path="url(#clip0_507_63173)">
    <g clip-path="url(#clip1_507_63173)">
      <mask id="mask0_507_63173" style="mask-type:alpha" maskUnits="userSpaceOnUse" x="-316" y="-194" width="1607" height="1667">
        <path d="M1290.47 365.951L673.687 -193.352L-315.026 929.618L337.42 1472.77L1290.47 365.951Z" fill="#D9D9D9"/>
      </mask>
      <g mask="url(#mask0_507_63173)">
        <path d="M412.837 113.229L-35.9474 627.088C-99.2216 699.538 -131.161 794.152 -124.738 890.116C-118.316 986.08 -74.058 1075.53 -1.70101 1138.8L-1.69917 1138.8C34.1285 1170.12 75.7764 1194.08 120.867 1209.29C165.957 1224.5 213.606 1230.68 261.094 1227.46C308.582 1224.24 354.978 1211.7 397.635 1190.54C440.291 1169.39 478.371 1140.04 509.701 1104.16L958.486 590.305C1021.76 517.855 1053.7 423.241 1047.28 327.277C1040.85 231.313 996.596 141.859 924.24 78.5951L924.238 78.5943C888.41 47.2689 846.762 23.3161 801.672 8.10353C756.582 -7.10908 708.932 -13.2836 661.444 -10.0675C613.956 -6.85135 567.56 5.6924 524.904 26.8476C482.247 48.0029 444.167 77.3554 412.837 113.229V113.229Z" stroke="#77CC09" stroke-width="0.5" stroke-miterlimit="10"/>
        <path d="M415.578 141.275L-7.80294 626.049C-37.36 659.892 -59.9702 699.224 -74.3428 741.8C-88.7153 784.376 -94.5687 829.361 -91.5686 874.189C-85.5098 964.721 -43.7571 1049.11 24.5045 1108.79C92.7661 1168.48 181.945 1198.57 272.423 1192.44C362.9 1186.31 447.265 1144.47 506.958 1076.12L930.339 591.347C990.004 522.995 1020.11 433.747 1014.04 343.231C1007.97 252.715 966.222 168.343 897.972 108.67C829.722 48.9969 740.562 18.9093 650.099 25.0238C559.636 31.1383 475.278 72.9542 415.577 141.276L415.578 141.275Z" stroke="#77CC09" stroke-width="0.5" stroke-miterlimit="10"/>
        <path d="M418.171 167.732L18.754 625.066C-9.12984 656.993 -30.4602 694.099 -44.019 734.265C-57.5779 774.431 -63.0998 816.87 -60.2694 859.16C-57.439 901.449 -46.3117 942.761 -27.523 980.736C-8.73427 1018.71 17.348 1052.61 49.2347 1080.48L49.234 1080.49C113.632 1136.79 197.763 1165.17 283.119 1159.39C368.475 1153.61 448.065 1114.14 504.379 1049.66L903.796 592.328C931.68 560.401 953.01 523.295 966.569 483.129C980.128 442.963 985.65 400.524 982.819 358.234C979.989 315.945 968.862 274.633 950.073 236.658C931.284 198.683 905.202 164.788 873.315 136.909L873.316 136.907C808.918 80.6025 724.787 52.2184 639.431 57.9991C554.075 63.7799 474.485 103.252 418.171 167.732Z" stroke="#77CC09" stroke-width="0.5" stroke-miterlimit="10"/>
        <path d="M420.61 192.692L43.8022 624.139C17.4966 654.259 -2.62648 689.264 -15.4179 727.157C-28.2094 765.049 -33.4187 805.086 -30.7487 844.982C-28.0786 884.878 -17.5814 923.851 0.143734 959.677C17.8688 995.502 42.4746 1027.48 72.5563 1053.78L72.5579 1053.78C102.639 1080.08 137.608 1100.19 175.466 1112.97C213.325 1125.74 253.332 1130.92 293.204 1128.22C333.076 1125.52 372.031 1114.99 407.846 1097.23C443.661 1079.47 475.634 1054.82 501.939 1024.7L878.748 593.255C905.053 563.135 925.176 528.129 937.968 490.237C950.759 452.345 955.969 412.308 953.299 372.412C950.628 332.516 940.131 293.543 922.406 257.717C904.681 221.891 880.075 189.915 849.994 163.614L849.992 163.613C819.91 137.312 784.942 117.2 747.083 104.428C709.225 91.6548 669.218 86.4705 629.346 89.1708C589.474 91.871 550.519 102.403 514.704 120.165C478.889 137.927 446.916 162.572 420.61 192.692Z" stroke="#77CC09" stroke-width="0.5" stroke-miterlimit="10"/>
        <path d="M422.91 216.239L67.4319 623.264C42.5982 651.677 23.5983 684.702 11.5176 720.455C-0.563191 756.208 -5.48811 793.987 -2.97589 831.635C-0.463668 869.282 9.43647 906.06 26.159 939.868C42.8816 973.675 66.0989 1003.85 94.4847 1028.67C122.87 1053.49 155.869 1072.46 191.594 1084.51C227.32 1096.56 265.072 1101.45 302.696 1098.89C340.32 1096.34 377.077 1086.39 410.868 1069.62C444.659 1052.85 474.822 1029.59 499.634 1001.15L855.114 594.13C905.234 536.743 930.533 461.799 925.446 385.787C920.359 309.774 885.302 238.918 827.988 188.806C770.674 138.695 695.798 113.433 619.831 118.578C543.864 123.722 473.03 158.852 422.91 216.239V216.239Z" stroke="#77CC09" stroke-width="0.5" stroke-miterlimit="10"/>
        <path d="M425.083 238.454L89.7262 622.439C42.4438 676.578 18.577 747.279 23.3763 818.989C28.1756 890.699 61.2479 957.544 115.318 1004.82C169.387 1052.09 240.025 1075.93 311.692 1071.07C383.359 1066.22 450.184 1033.08 497.466 978.938L832.823 594.952C880.106 540.814 903.972 470.113 899.173 398.402C896.797 362.895 887.454 328.209 871.679 296.324C855.904 264.44 834.004 235.981 807.232 212.573C780.459 189.165 749.338 171.266 715.644 159.898C681.95 148.53 646.343 143.917 610.858 146.32C575.372 148.723 540.701 158.096 508.826 173.905C476.951 189.713 448.495 211.647 425.083 238.454Z" stroke="#77CC09" stroke-width="0.5" stroke-miterlimit="10"/>
        <path d="M427.129 259.41L110.753 621.661C66.1467 672.735 43.6308 739.435 48.1585 807.086C52.6862 874.737 83.8865 937.799 134.896 982.397C185.905 1027 252.545 1049.48 320.155 1044.9C387.765 1040.32 450.808 1009.06 495.414 957.981L811.79 595.731C856.396 544.656 878.912 477.957 874.385 410.306C869.857 342.655 838.657 279.593 787.647 234.994C736.638 190.396 669.998 167.913 602.388 172.492C534.778 177.07 471.735 208.336 427.129 259.41Z" stroke="#77CC09" stroke-width="0.5" stroke-miterlimit="10"/>
        <path d="M429.059 279.182L130.592 620.928C88.5782 669.12 67.3917 732.019 71.6886 795.802C75.9856 859.585 105.414 919.033 153.508 961.083C201.602 1003.13 264.426 1024.34 328.174 1020.06C391.922 1015.77 451.379 986.33 493.478 938.212L791.945 596.466C812.815 572.613 828.785 544.882 838.943 514.857C849.101 484.833 853.247 453.103 851.145 421.483C849.043 389.863 840.734 358.972 826.692 330.575C812.651 302.178 793.152 276.833 769.311 255.988C745.47 235.143 717.754 219.207 687.747 209.09C657.741 198.974 626.031 194.876 594.432 197.03C562.833 199.184 531.963 207.548 503.587 221.644C475.212 235.74 449.887 255.292 429.059 279.182V279.182Z" stroke="#77CC09" stroke-width="0.5" stroke-miterlimit="10"/>
        <path d="M430.881 297.834L149.308 620.236C109.669 665.7 89.6801 725.04 93.733 785.214C97.786 845.388 125.55 901.473 170.922 941.144C216.295 980.815 275.565 1000.83 335.706 996.779C395.847 992.732 451.939 964.958 491.656 919.561L773.227 597.158C792.904 574.654 807.96 548.494 817.535 520.172C827.109 491.85 831.014 461.922 829.027 432.098C827.039 402.274 819.199 373.138 805.952 346.355C792.706 319.572 774.314 295.667 751.827 276.006C729.34 256.345 703.199 241.313 674.897 231.769C646.595 222.225 616.687 218.356 586.882 220.383C557.077 222.41 527.959 230.293 501.192 243.583C474.425 256.872 450.533 275.307 430.881 297.834V297.834Z" stroke="#77CC09" stroke-width="0.5" stroke-miterlimit="10"/>
        <path d="M432.608 315.43L166.974 619.582C129.522 662.464 110.617 718.466 114.418 775.267C118.219 832.068 144.415 885.016 187.243 922.462C230.071 959.908 286.023 978.785 342.79 974.941C399.557 971.097 452.488 944.846 489.941 901.963L755.576 597.809C774.12 576.576 788.306 551.899 797.324 525.186C806.342 498.474 810.014 470.249 808.132 442.124C806.25 413.999 798.85 386.525 786.355 361.269C773.859 336.013 756.513 313.471 735.307 294.93L735.305 294.929C714.099 276.388 689.447 262.21 662.758 253.206C636.07 244.202 607.866 240.547 579.758 242.451C551.65 244.354 524.188 251.779 498.94 264.301C473.692 276.822 451.152 294.196 432.608 315.43V315.43Z" stroke="#77CC09" stroke-width="0.5" stroke-miterlimit="10"/>
        <path d="M434.23 332.03L183.632 618.966C166.124 638.996 152.729 662.278 144.212 687.483C135.695 712.687 132.222 739.32 133.993 765.861C135.763 792.401 142.742 818.329 154.531 842.163C166.32 865.996 182.688 887.269 202.699 904.765C222.71 922.262 245.973 935.64 271.159 944.134C296.344 952.628 322.959 956.073 349.483 954.271C376.006 952.469 401.919 945.456 425.741 933.633C449.563 921.81 470.826 905.407 488.317 885.363L738.917 598.427C774.114 557.953 791.838 505.171 788.2 451.663C784.561 398.156 759.858 348.293 719.51 313.016C679.162 277.738 626.466 259.928 572.983 263.493C519.5 267.057 469.599 291.706 434.23 332.03V332.03Z" stroke="#77CC09" stroke-width="0.5" stroke-miterlimit="10"/>
        <path d="M435.765 347.69L199.352 618.386C182.847 637.283 170.222 659.246 162.196 683.02C154.171 706.794 150.902 731.914 152.577 756.945C154.253 781.976 160.839 806.428 171.96 828.906C183.081 851.383 198.519 871.445 217.393 887.947L217.392 887.949C255.509 921.275 305.306 938.075 355.829 934.653C406.351 931.232 453.46 907.868 486.793 869.703L723.205 599.009C756.524 560.841 773.338 511.005 769.949 460.46C766.561 409.915 743.247 362.801 705.136 329.479C667.025 296.157 617.237 279.356 566.722 282.771C516.207 286.186 469.101 309.538 435.765 347.69V347.69Z" stroke="#77CC09" stroke-width="0.5" stroke-miterlimit="10"/>
        <path d="M437.209 362.464L214.177 617.836C182.731 653.842 166.858 700.862 170.05 748.554C173.242 796.245 195.237 840.701 231.196 872.141C267.156 903.582 314.134 919.432 361.797 916.204C409.46 912.976 453.902 890.935 485.348 854.929L708.378 599.557C723.948 581.729 735.859 561.009 743.43 538.581C751.002 516.152 754.085 492.454 752.505 468.84C750.924 445.226 744.711 422.157 734.22 400.952C723.728 379.747 709.164 360.82 691.359 345.253C673.553 329.685 652.856 317.781 630.447 310.221C608.039 302.661 584.359 299.592 560.759 301.191C537.159 302.789 514.101 309.023 492.902 319.536C471.703 330.049 452.779 344.637 437.208 362.465L437.209 362.464Z" stroke="#77CC09" stroke-width="0.5" stroke-miterlimit="10"/>
      </g>
    </g>
  </g>
  <defs>
    <clipPath id="clip0_507_63173">
      <rect width="570" height="580" fill="white"/>
    </clipPath>
    <clipPath id="clip1_507_63173">
      <rect width="1517.76" height="994.255" fill="white" transform="matrix(0.403084 -0.915163 -0.915163 -0.403084 552.219 1554.46)"/>
    </clipPath>
  </defs>
</svg>
