<svg id="Layer_2" data-name="Layer 2" xmlns="http://www.w3.org/2000/svg" viewBox="0 0 327 160"><defs><style>.cls-1{fill:#77cc09;}.cls-2{fill:#0a4393;}.cls-3{fill:#fff;}.cls-4{fill:#fabc20;}</style></defs><polygon class="cls-1" points="327 0 0 0 0 118.29 327 20.87 327 0"/><path class="cls-2" d="M114.86,73.61a10,10,0,0,0,12.43,6.74L327,20.87V0L121.59,61.16A10.0188,10.0188,0,0,0,114.86,73.61Z" transform="translate(0 0)"/><path class="cls-3" d="M277.49,71.66a10.0032,10.0032,0,0,0-12.68-11.4L212.96,75.7c-.24.09-.47.2-.73.27L0,139.17V160L270.5,79.45A10.0164,10.0164,0,0,0,277.49,71.66Z" transform="translate(0 0)"/><path class="cls-4" d="M218.95,63.53a9.9974,9.9974,0,0,0-11.99-6.85c-.15.04-.3.06-.45.11L0,118.29v20.88L212.22,75.98c.26-.07.49-.18.73-.27a9.9863,9.9863,0,0,0,6.01-12.18Z" transform="translate(0 0)"/></svg>