<?xml version="1.0" encoding="utf-8"?>
<!-- Generator: Adobe Illustrator 25.4.1, SVG Export Plug-In . SVG Version: 6.00 Build 0)  -->
<svg version="1.1" id="Layer_1" xmlns="http://www.w3.org/2000/svg" xmlns:xlink="http://www.w3.org/1999/xlink" x="0px" y="0px"
	 viewBox="0 0 222.5 306" style="enable-background:new 0 0 222.5 306;" xml:space="preserve">
<style type="text/css">
	.st0{fill:#77CC09;}
	.st1{fill:#0A4393;}
	.st2{fill:#FFFFFF;}
	.st3{fill:#FABC20;}
</style>
<path class="st0" d="M0,0h177.8L22,306H0V0z"/>
<path class="st1" d="M112.8,105.3c-4.9-2.5-10.9-0.5-13.4,4.4L0,305.1v0.9h22l95.2-187.2C119.7,113.8,117.8,107.8,112.8,105.3z"/>
<path class="st2" d="M97.6,201.5c-0.1,0.2-0.3,0.4-0.4,0.7l-24.5,48.2c-2.5,4.9-0.5,10.9,4.4,13.4c1.4,0.7,3,1.1,4.5,1.1
	c3.6,0,7.2-2,8.9-5.5L222.5,0h-22.4L97.6,201.5z"/>
<path class="st3" d="M200.1,0h-22.4L79.8,192.5c-2.5,4.9-0.5,10.9,4.4,13.4c1.4,0.7,3,1.1,4.5,1.1c3.4,0,6.7-1.8,8.5-4.8
	c0.1-0.2,0.3-0.4,0.4-0.7L200.1,0L200.1,0z"/>
</svg>
